<svg width="57" height="66" viewBox="0 0 57 66" fill="none" xmlns="http://www.w3.org/2000/svg">
<path d="M5.09448 48.9521L4.77734 48.7935L5.09448 48.9521Z" fill="#45C7F0"/>
<path d="M29.8334 9.30078L29.6748 9.45938C29.6748 9.45938 29.6748 9.45939 29.8334 9.30078Z" fill="#45C7F0"/>
<path d="M37.7623 0.735982C37.6037 0.735982 37.6037 0.735982 37.4451 0.735982H37.2866C37.2866 0.735982 37.2865 0.735982 37.128 0.735982C36.9694 0.735982 36.9694 0.894591 36.8108 0.894591C36.8108 0.894591 36.8108 0.894591 36.6522 0.894591C36.3351 0.57738 34.9078 0.260166 31.2603 0.260166L31.4189 0.101562C29.3573 0.418774 27.9301 0.577378 26.6614 1.37041C26.5028 1.2118 26.0271 1.37041 25.5514 1.37041C25.3928 1.37041 25.0756 1.52901 24.917 1.52901C24.7584 1.52901 24.5999 1.68762 24.5999 1.68762C24.4413 1.68762 24.4413 1.68762 24.4413 1.68762C23.3312 2.48065 21.9039 2.48065 20.7939 3.27368C20.7939 3.27368 20.7938 3.11507 21.111 2.95646C20.3181 3.43228 19.208 4.0667 19.0494 3.90809C18.0979 4.38391 16.8293 5.01834 15.8778 5.81136C15.402 6.12858 14.9263 6.44579 14.4505 6.763C13.9748 7.08021 13.6576 7.39742 13.499 7.71463V7.55603C13.0232 8.19045 12.7061 8.19045 12.0718 8.82487H11.9132C11.2788 9.45929 10.0102 10.5695 9.53441 11.204L9.37581 11.0454C8.90006 11.5212 8.58291 11.8384 8.10716 12.3142C8.26575 12.1556 8.42431 11.997 8.58289 11.8384C8.74148 12.3142 7.4728 12.6314 6.83846 13.9003C6.67988 14.0589 6.52132 14.3761 6.36273 14.6933C6.20415 15.0105 6.20413 15.3277 6.04555 15.6449C5.88696 16.2793 5.72838 16.9138 5.25263 17.3896C5.09404 18.024 5.25266 16.7552 4.93549 17.5482C4.77691 17.3896 5.09406 17.0724 4.7769 17.231C4.45973 18.024 3.98395 18.3412 3.5082 19.4515H3.34965C3.19107 20.0859 2.87386 20.7203 2.71528 21.3547C2.39811 21.8305 2.23955 22.465 2.23955 22.9408C2.08096 24.3682 1.44663 23.7338 1.44663 25.3199L1.12944 25.7957C0.970859 26.4301 1.28803 26.2715 1.12944 27.0645C0.970859 27.0645 0.970888 28.0162 0.812304 27.5403C0.65372 28.3334 0.495127 29.1264 0.653711 30.078C0.653711 30.5538 0.653711 31.0297 0.653711 31.5055C0.653711 31.9813 0.653701 32.4571 0.495117 33.0915C0.812285 33.5674 0.812314 34.6776 0.970897 34.9948C0.970897 34.9948 0.970897 35.6292 0.970897 35.9464C0.970897 36.2637 0.970888 36.5809 0.812304 35.9464C0.812304 35.7878 0.812304 35.6292 0.812304 35.6292L0.653711 35.4706C0.495127 36.7395 1.28805 37.6911 1.44663 38.8013C1.44663 38.4841 1.28805 38.0083 1.44663 38.3255C1.44663 38.6427 1.60522 39.1186 1.60522 39.4358L1.44663 39.2772L1.76382 40.8632L1.92236 40.546C2.08094 41.339 1.76381 41.6562 2.39814 42.4493C2.71531 42.7665 2.39811 41.6562 2.71528 42.4493C2.87386 42.9251 3.03248 43.5595 3.19106 44.3525C3.34964 44.6698 3.34961 44.987 3.5082 45.4628C3.66678 45.78 3.82538 46.0972 3.82538 46.4144C3.98397 46.2558 4.14253 46.573 4.30112 46.8902L4.14257 47.0488C4.93549 48.3177 3.98399 47.6833 4.93549 48.9521L5.25263 49.1107C6.20413 50.0623 5.25266 49.9037 6.52133 50.8554C6.20416 50.3796 6.67989 50.3796 6.99706 51.014H6.67987C6.99704 51.3312 6.99707 51.3312 7.15565 51.6484C6.99707 51.4898 6.83849 51.6484 7.31424 52.1242L6.83846 51.9656C7.15563 52.2828 7.47281 52.4414 7.78998 52.6C7.94856 52.9173 8.26573 53.3931 8.58289 53.7103C8.90006 54.0275 9.21722 54.3447 9.21722 54.6619C9.21722 54.6619 9.53438 54.9791 9.85155 55.4549C10.1687 55.7721 10.6445 56.248 10.9617 56.248C10.6445 56.0894 11.2788 56.8824 10.9617 56.7238C11.4374 56.8824 12.5475 57.6754 12.8647 58.3098H12.7061C14.2919 59.7373 15.7192 60.2131 17.305 61.3234C17.305 61.1647 18.0979 61.6406 18.0979 61.3234C19.0494 61.6406 19.6837 62.1164 20.3181 62.4336C20.9524 62.7508 21.4282 63.068 21.9039 62.7508C22.6968 63.068 22.8554 63.2266 23.1726 63.5438H23.014C23.8069 63.861 24.2827 63.861 24.7585 64.0196C25.2342 64.1783 25.5514 64.3369 26.1857 64.3369C26.82 64.3369 26.9786 64.0196 27.9301 64.3369C27.613 64.4955 27.9301 64.4955 28.4059 64.4955C28.0887 64.4955 28.0887 64.4955 28.5644 64.6541C28.723 64.6541 28.723 64.6541 28.8816 64.6541C29.5159 64.6541 29.5159 64.6541 29.1988 64.6541C29.1988 64.6541 29.1988 64.6541 29.0402 64.4955C29.6745 64.8127 30.9432 64.6541 31.1018 64.9713C33.1634 65.1299 34.5906 64.8127 36.1764 64.6541C36.335 64.8127 36.0179 64.9713 35.5421 64.9713L36.6522 64.8127C36.6522 64.9713 36.0179 64.9713 35.5421 64.9713C36.335 65.1299 36.9694 64.9713 37.7623 64.8127C38.0795 64.6541 38.5552 64.6541 38.8724 64.4955C39.1896 64.3369 39.6653 64.3369 40.141 64.3369L40.4582 64.1782H40.6168C40.6168 64.0196 40.934 63.861 41.0926 63.861C41.4097 64.0196 41.0926 64.1783 42.0441 64.0196C42.6784 64.0196 43.7885 63.3852 44.5814 63.068C44.1057 63.2266 44.2642 63.068 44.4228 62.9094C44.74 62.7508 45.0572 62.7508 45.3743 62.5922L45.5329 62.7508C45.3743 62.5922 46.4844 62.1164 46.4844 61.9578C46.8016 61.9578 46.0086 62.275 45.8501 62.4336C46.643 62.1164 46.8016 61.9578 46.9602 61.9578C47.1188 61.7992 47.2773 61.7992 48.0702 61.3234C48.7046 60.8475 47.7531 61.1647 48.0702 60.8475C48.7046 60.3717 49.3389 59.8959 50.1318 59.5787H49.8147C50.449 59.1029 50.7661 58.7857 51.2419 58.4684C51.7176 58.1512 52.0348 57.9926 52.5106 57.6754C52.6692 57.3582 52.9863 57.1996 53.1449 57.041C53.3035 56.8824 53.4621 56.5652 53.6207 56.4066C53.9378 55.9308 54.255 55.6135 54.4136 55.2963C54.4136 55.2963 54.4136 55.2963 54.5722 55.2963C55.5237 54.9791 56.158 54.6619 55.9994 54.3447C55.8408 54.1861 55.6822 54.0275 55.2065 53.8689V53.7103C55.5237 53.0759 55.2065 52.9172 54.8894 53.0759C54.5722 53.2345 54.255 53.3931 53.9378 53.5517H53.7792C53.3035 53.3931 52.8277 53.3931 52.1934 53.2345C51.5591 53.2345 50.9247 53.2345 50.449 53.2345C49.9732 53.2345 49.4975 53.2345 49.0217 53.3931C48.8632 52.9173 47.9117 53.3931 47.5945 53.2345C46.8016 53.5517 45.8501 52.7586 45.0571 53.0759C45.0571 53.0759 45.0572 52.9172 45.3743 52.9172C44.74 52.9172 43.947 52.7586 43.947 52.6C42.5198 52.4414 40.7754 51.807 39.6653 51.9656C39.031 52.1242 39.0309 51.807 38.3966 51.807C38.0794 51.807 37.7623 51.6484 37.2866 51.6484C36.9694 51.4898 36.6522 51.3312 36.335 51.3312V51.1726L35.2249 50.6968L35.5421 50.8554C35.225 51.1726 34.9078 50.3796 34.1149 50.221C33.7977 50.0624 33.3219 50.0623 32.8462 50.0623C32.6876 50.0623 32.3704 50.0623 32.2119 50.0623C32.0533 50.0623 31.8947 49.9037 31.7361 49.7451C31.2604 49.7451 32.2119 49.5865 31.5775 49.4279C31.7361 49.2693 31.8947 49.4279 31.8947 49.2693C31.419 49.1107 31.2604 48.6349 30.626 48.3177V48.1591C29.6745 47.8419 29.516 47.0488 28.723 46.8902C27.9301 46.4144 28.5644 46.0972 27.6129 45.78L27.4543 45.3042C27.1372 44.987 26.9786 45.3042 26.82 44.987C26.9786 44.8284 26.5029 44.5111 26.82 44.5111C26.5029 44.0353 26.1857 43.7181 25.7099 43.4009C25.2342 43.0837 24.917 42.6079 24.7585 41.9735C24.2827 41.9735 24.1241 41.339 23.8069 41.1804C23.9655 41.0218 23.1726 40.0702 23.8069 40.546C23.8069 40.546 23.9655 40.7046 23.8069 40.7046H23.9655C23.9655 40.2288 23.6483 40.0702 23.4898 39.753C23.1726 39.4358 23.014 39.2772 22.8554 38.9599C22.8554 39.1186 23.014 39.4358 22.8554 39.2772L23.6483 38.6427H23.8069L23.4898 37.6911L23.3312 37.8497C23.1726 37.3739 23.3312 37.0567 23.014 36.5809C22.8554 36.4223 23.014 37.0567 22.6968 36.5809C22.5382 35.9464 22.3797 34.8362 22.2211 34.0432C22.0625 34.2018 22.0625 33.8846 21.9039 33.726H22.0625C21.5868 32.9329 22.3797 33.2501 21.9039 32.4571H22.0625L21.5868 32.2985C21.111 31.5055 21.9039 31.8227 21.2696 31.0297C21.4282 31.3469 20.9524 31.3469 20.9524 30.8711L21.111 31.0297C20.9524 30.8711 20.9524 30.7125 20.9524 30.5539C21.111 30.7125 21.2696 30.5538 21.111 30.2366L21.4282 30.3952C21.2696 30.2366 21.111 29.9194 20.9524 29.7608C21.111 29.285 20.7938 28.492 20.9524 28.1748C20.9524 28.1748 20.9524 28.1748 20.9524 28.0162C20.9524 27.8576 20.9524 27.6989 20.9524 27.5403C20.9524 27.2231 20.9524 26.9059 20.7939 26.7473C20.9524 26.9059 20.9524 26.4301 21.2696 26.5887C21.111 26.2715 20.9524 25.4785 21.2696 25.1613C21.4282 24.844 21.4282 24.5268 21.4282 24.3682C21.4282 24.051 21.4282 23.8924 21.5868 23.5752C21.5868 23.258 21.5867 23.0994 21.7453 22.7822C21.7453 22.465 21.9039 22.3064 22.0625 21.9891C21.9039 21.9891 22.2211 21.5133 21.9039 21.5133C21.9039 20.8789 22.3797 20.4031 22.5382 20.0859C22.8554 19.7687 22.8554 19.4515 22.6968 18.9756C22.8554 18.4998 23.1726 18.4998 23.3312 18.3412V18.4998C23.8069 17.5482 23.9655 17.3896 24.2827 16.7552C24.4413 16.4379 24.1241 16.1207 24.5999 15.6449C24.5999 15.9621 24.7584 15.6449 24.917 15.4863C24.917 15.6449 24.917 15.6449 25.0756 15.4863V15.3277C25.2342 15.0105 25.2342 15.0105 25.0756 15.1691C25.0756 15.1691 25.0756 15.1691 24.917 15.1691C25.3927 14.8519 25.7099 14.2175 25.8685 14.2175C26.6614 13.1072 26.9786 12.3142 27.6129 11.3626C27.7715 11.3626 27.7715 11.6798 27.6129 11.8384L28.0887 11.204C28.2473 11.3626 27.9301 11.6798 27.7715 11.8384C28.5644 11.3626 28.723 10.0937 29.6745 9.45929V9.14209C29.6745 9.14209 29.6745 8.82487 29.8331 8.66627C29.9917 8.66627 30.1503 8.98348 30.4674 8.50766C30.626 8.34906 30.7846 8.19045 30.9432 7.87324C30.9432 7.71463 31.2604 7.39742 31.4189 7.23882C31.1018 7.39742 31.2603 7.23881 31.2603 7.08021C31.4189 6.9216 31.7361 6.92161 31.7361 6.763L31.8947 6.92161C31.7361 6.763 32.3704 6.28718 32.3704 6.28718C32.529 6.28718 32.0533 6.6044 32.0533 6.763C33.0048 6.12858 32.529 6.44579 33.322 5.96997C33.7977 5.49416 33.1634 5.81136 33.322 5.49415C33.7977 5.17694 34.1149 4.85973 34.5906 4.54252H34.2735C35.0664 3.9081 35.5421 3.59088 36.1764 3.43228C36.8108 2.79786 37.2865 2.16344 37.6037 1.68762C37.9209 1.2118 37.9209 0.894587 37.9209 0.735982C37.9209 0.894587 37.7623 0.735982 37.7623 0.735982ZM33.322 2.95646C32.3705 3.59089 31.4189 4.38391 29.9917 5.49415C29.5159 5.81136 29.1988 5.96997 28.723 6.44579C27.2958 7.87324 26.5028 8.50767 24.917 10.5695C23.9655 11.6798 23.014 12.9486 22.2211 14.2175C22.0625 15.0105 21.111 15.8035 20.9524 16.7552L20.6353 16.9138C20.6353 17.231 20.4767 17.5482 20.3181 17.7068C20.3181 17.8654 20.1595 18.1826 20.1595 18.3412C20.0009 18.4998 20.0009 18.6584 20.0009 18.817L19.8423 19.2929V19.1342C19.6838 19.4514 19.6837 19.9273 19.5252 20.2445C19.3666 20.5617 19.208 21.0375 19.208 21.3547H19.3666C19.208 21.6719 19.0494 21.9891 19.0494 22.3064C19.0494 22.6236 18.8908 22.7822 18.8908 23.0994C18.8908 23.5752 18.7322 24.051 18.5736 24.6854C18.7322 25.6371 18.5737 26.2715 18.4151 26.9059C18.2565 27.5403 18.0979 28.3334 18.5736 29.1264C18.4151 28.9678 18.4151 29.285 18.4151 29.285C18.5737 30.078 18.5737 30.8711 19.0494 30.8711C19.208 31.5055 19.0494 31.3469 18.8908 31.5055C19.0494 31.5055 19.208 31.9813 19.3666 32.4571L19.208 32.2985C19.3666 32.7743 19.3666 33.0915 19.5252 33.5674L19.8423 33.2501C20.0009 33.8846 19.5252 33.5674 19.6838 34.0432H20.0009C20.1595 34.519 20.1595 34.8362 20.0009 35.312C20.0009 35.6292 20.0009 36.105 20.0009 36.5809C20.6353 38.3255 21.4282 40.2288 22.5382 41.8149C22.8554 42.2907 23.014 42.6079 23.3312 43.0837C23.6483 43.4009 23.9655 43.8767 24.2827 44.1939C24.5998 44.5111 24.7584 44.987 25.0756 45.3042C25.3928 45.6214 25.7099 46.0972 25.8685 46.4144V46.7316C25.7099 47.0488 26.82 47.2074 26.82 47.3661L27.2958 47.5247C27.2958 47.6833 27.4543 47.8419 27.2958 47.6833C27.6129 48.0005 27.613 47.8419 27.9301 48.0005L28.0887 48.4763C28.4058 48.7935 28.5644 48.9521 28.8816 49.2693C29.1988 49.4279 29.5159 49.5865 29.8331 49.9037C30.1503 50.0623 30.4674 50.221 30.7846 50.5382C31.1018 50.6968 31.419 50.8554 31.7361 51.1726C32.0533 51.4898 32.529 51.807 33.1634 52.1242C33.6391 52.4414 34.2735 52.7586 34.9078 53.0759C35.5421 53.3931 36.1764 53.5517 36.8108 53.7103C37.1279 53.8689 37.4451 53.8689 37.7623 54.0275C38.0795 54.0275 38.3966 54.1861 38.5552 54.1861C39.3481 54.3447 39.9825 54.5033 40.6168 54.8205C41.4097 54.9791 42.0441 55.2963 42.837 55.6135C44.2642 56.0894 45.8501 56.5652 47.2773 56.4066C47.4359 56.4066 47.5945 56.4066 47.5945 56.4066C48.546 56.5652 49.3389 56.5652 50.2904 56.5652C50.2904 56.5652 50.449 56.5652 50.7662 56.5652C51.0833 56.5652 51.5591 56.5652 52.0348 56.5652C51.0833 57.1996 50.2904 57.834 49.4975 58.4684C48.2288 59.4201 46.8015 60.3717 44.74 61.3234C43.7885 61.6406 42.9956 61.9578 42.2027 61.9578C41.8855 61.9578 41.5683 62.1164 41.0926 62.1164C40.7754 62.1164 40.4582 62.275 40.141 62.275C38.8724 62.4336 37.4451 62.5922 35.3835 62.7508C33.3219 62.7508 31.2604 62.7508 29.1988 62.4336C28.2473 62.5922 26.6615 61.9578 25.5514 61.7992L25.2342 61.482C24.917 61.482 24.4412 61.3233 24.1241 61.1647C23.4897 61.1647 23.014 60.6889 22.6968 60.6889L22.0625 60.3717H22.2211C21.7454 60.2131 21.2696 60.0545 20.7939 59.8959C20.3181 59.7373 19.8423 59.4201 19.5252 59.1029V59.2615C18.7322 58.6271 18.0979 58.3098 17.6222 57.9926C16.9878 57.6754 16.5121 57.3582 15.8778 56.7238C14.7677 56.248 14.1333 55.6135 13.6576 54.8205C13.0233 54.1861 12.5475 53.3931 11.596 52.7586C11.7546 52.9173 11.596 52.6 11.596 52.6C11.2788 52.2828 10.8031 51.807 10.4859 51.4898C10.1688 51.1726 10.0102 51.014 9.693 51.1726C9.21725 50.5382 9.37582 50.5382 9.53441 50.3796C9.37582 50.5382 8.90006 49.9037 8.58289 49.4279L8.74149 49.5865C8.42432 49.1107 8.10714 48.6349 7.78998 48.1591L7.63138 48.6349C7.31422 47.6833 7.94854 48.1591 7.47279 47.5247L7.15565 47.6833C6.83848 47.0488 6.83846 46.573 6.67987 46.0972C6.67987 45.6214 6.52132 44.987 6.36273 44.5111C6.04557 43.2423 5.4112 41.9735 5.09403 40.7046C4.93545 40.0702 4.77688 39.4358 4.45971 38.8013C4.30113 38.1669 4.14256 37.5325 3.98398 36.8981L3.82538 35.9464C3.82538 35.6292 3.82537 35.312 3.66679 34.9948C3.66679 34.3604 3.5082 33.726 3.5082 33.0915C3.5082 32.4571 3.5082 31.8227 3.5082 31.1883C3.5082 30.8711 3.5082 30.5538 3.5082 30.2366C3.5082 29.9194 3.66679 29.6022 3.66679 29.285L3.82538 29.1264C4.14255 29.1264 3.50822 27.6989 3.82538 27.6989C3.82538 27.5403 3.82538 27.3817 3.82538 27.0645C3.98397 26.9059 3.98398 26.5887 3.98398 26.9059C4.14256 26.4301 4.14256 26.4301 3.98398 25.9543L4.30112 25.4785C4.61828 24.5268 4.93545 23.7338 5.09403 22.7822C5.09403 22.6236 5.25263 22.3064 5.25263 22.1477C5.25263 21.9891 5.41123 21.6719 5.56981 21.5133C5.7284 21.0375 6.04556 20.5617 6.20414 20.0859C6.52131 19.6101 6.99704 18.9756 7.47279 18.1826C7.63137 17.8654 7.94854 17.3896 8.26571 17.0724C8.58288 16.7552 8.90004 16.2793 9.05863 15.9621C9.37579 15.6449 9.69296 15.1691 9.85155 14.8519C10.1687 14.5347 10.4859 14.2175 10.8031 13.9003C11.4374 13.2658 11.9131 12.6314 12.3889 12.1556C13.0232 11.5212 13.9747 10.7281 14.7676 10.2523C15.7192 9.7765 16.6707 9.14208 17.6222 8.66627C19.5252 7.71463 21.5867 6.9216 23.3312 5.81136C23.4897 5.81136 23.8069 5.49415 23.8069 5.49415L24.5999 5.17695L25.0756 5.01834H25.2342H25.3928L27.2958 4.54252C27.2958 4.54252 28.4058 4.22531 29.8331 3.90809C31.2604 3.59088 33.1633 3.11507 34.432 2.79786C34.5906 2.79786 34.9078 2.63925 35.0664 2.63925C34.5906 2.16343 33.9563 2.48065 33.322 2.95646Z" fill="#45C7F0"/>
</svg>
