<svg width="54" height="61" viewBox="0 0 54 61" fill="none" xmlns="http://www.w3.org/2000/svg">
<path d="M52.909 43.9671C52.5918 43.4913 52.4332 42.8569 52.116 42.3811C51.9575 42.0639 51.7989 41.5881 51.6403 41.1122C51.3231 40.3192 51.1645 39.5262 50.8474 38.7332C49.4201 35.7196 47.3585 33.4992 46.2484 30.1685C45.7727 28.8996 44.3454 27.1549 43.8697 26.3619C43.5525 26.2033 43.3939 26.0447 43.0768 26.0447C42.7596 25.2517 42.4424 24.3001 42.1253 23.507C42.1253 23.3484 42.1253 23.3484 42.1253 23.1898C42.1253 23.0312 42.4424 23.3484 42.4424 23.1898C42.601 22.8726 42.601 22.5554 42.7596 22.2382C42.7596 22.0796 43.2354 22.0796 43.2354 21.921C43.2354 21.7624 43.2353 21.6037 43.3939 21.4451C43.5525 21.2865 43.7111 20.9693 44.0283 20.8107C43.8697 21.2865 43.7111 21.7624 43.5525 22.2382C43.7111 21.921 44.0283 21.6037 44.3454 21.4451C44.1869 21.6037 44.1869 21.4451 44.1869 21.2865H44.3454C44.1869 21.6037 44.1869 21.921 43.7111 22.0796C43.7111 22.0796 43.7111 22.2382 43.7111 22.3968C43.5525 22.3968 43.5525 22.3968 43.3939 22.3968C43.3939 22.3968 43.3939 22.5554 43.2354 22.5554C43.3939 22.5554 43.8697 22.2382 43.8697 22.2382C44.3454 21.4451 44.9798 20.6521 45.4555 20.0177C45.4555 19.8591 45.4555 19.8591 45.4555 19.8591C45.6141 19.8591 45.6141 19.8591 45.6141 19.7005L45.7727 19.3833V19.2246C45.7727 19.066 45.7727 19.0661 45.6141 19.0661C45.6141 19.0661 45.7727 19.066 45.7727 18.9074V19.0661C45.9313 18.9075 46.0899 18.5902 46.2484 18.4316C46.2484 18.4316 46.2484 18.273 46.407 18.273C46.5656 18.1144 46.5656 17.9558 46.7242 17.7972L46.8828 17.6386L47.3585 17.1628L48.1514 16.2112C49.7373 14.3079 51.1645 12.5632 52.2746 10.0255L52.4332 9.54972L51.7989 9.23251C51.3231 9.07391 50.6888 8.75669 50.0544 9.0739C49.8959 9.0739 49.5787 9.2325 49.4201 9.3911C49.4201 9.3911 49.4201 9.39111 49.4201 9.54972C49.1029 9.70832 48.7858 10.0255 48.7858 10.0255C47.9929 10.3428 46.7242 10.9772 45.7727 11.2944C42.9182 12.4046 40.8566 14.1493 37.8435 14.9423C36.7334 15.2595 34.989 16.5284 34.0375 17.0042V17.1628C33.8789 16.3698 33.2446 16.0525 32.9274 14.6251C33.4032 15.8939 31.6587 14.4665 31.6587 13.039C31.6587 11.9288 31.0244 11.1358 30.2315 10.3427C29.9143 10.0255 29.4386 9.54971 29.1214 9.0739C28.6456 8.59808 28.4871 8.43947 27.8527 7.48784C27.377 6.69481 26.4255 5.90179 25.7911 5.26737C24.0467 3.68131 22.3023 2.25384 20.7165 0.984999C20.3993 0.826393 20.2407 0.826413 19.765 0.509201C19.4478 0.509201 19.2892 0.350586 19.1306 0.350586C19.4478 1.61943 19.6064 2.88827 19.765 4.15711C20.0821 5.58456 20.5579 7.01203 21.0336 8.43948C21.3508 9.39112 21.3508 10.3427 21.5094 10.9772C21.668 11.6116 21.8266 11.9288 21.8266 12.246C21.9851 12.5632 22.1437 12.8804 22.3023 13.039C22.1437 12.7218 22.1437 12.5632 21.9851 12.246C21.8266 11.9288 21.8266 11.7702 21.668 11.1358C21.5094 10.3427 22.3023 11.7702 22.4609 11.9288C22.6195 12.0874 22.3023 12.4046 22.3023 12.4046C22.3023 12.7218 22.6195 12.8804 22.7781 13.1977C22.9366 13.3563 22.6195 13.3562 22.6195 13.3562C22.7781 13.6735 23.2538 13.9907 23.2538 14.3079V14.9423C23.2538 15.1009 23.2538 15.2595 23.2538 15.2595L23.4124 15.4181C23.7296 15.8939 24.0467 16.5284 24.2053 17.1628C24.0467 16.8456 24.0467 16.5284 24.2053 16.0525C24.2053 16.2111 24.0467 16.2111 24.0467 16.0525L24.2053 15.8939C24.2053 16.0526 24.3639 16.0525 24.3639 16.2112C24.3639 16.3698 24.3639 16.3698 24.3639 16.5284C24.3639 16.687 24.3639 16.8456 24.2053 17.0042L24.3639 17.1628C24.3639 17.3214 24.2053 17.3214 24.2053 17.3214V17.48C24.3639 17.3214 24.3639 17.1628 24.3639 17.0042C24.5225 17.48 24.5225 17.7972 24.6811 18.273C24.6811 18.4316 24.8396 18.5902 24.8396 18.7489C24.9982 19.3833 25.1568 20.0177 25.3154 20.8107H25.1568C24.3639 21.2865 23.7296 21.921 23.4124 22.5554C22.1437 22.3968 21.8266 23.507 19.765 23.9828C21.1922 23.6656 19.2892 25.2517 17.7034 24.9345C15.4832 24.6173 13.263 26.3619 10.7257 26.9963C10.0914 27.1549 9.45702 27.4722 8.82269 27.7894C6.44393 28.5824 4.54093 30.0098 2.63793 31.1201C2.63793 31.1201 2.47934 31.1201 2.16217 31.2787C2.00359 31.4373 1.36926 31.5959 0.893504 33.0234L0.100586 35.7197L2.95509 35.561C4.22376 35.561 5.33385 35.4024 6.7611 35.4024C7.87119 35.4024 8.82269 35.0852 9.61561 34.9266C10.2499 34.9266 11.0429 35.0852 11.5186 35.0852C12.3115 35.0852 13.1044 35.0852 13.7388 34.9266C12.9459 34.9266 12.3115 35.0852 11.5186 35.0852C10.8843 35.0852 11.9944 34.6094 12.3115 34.6094C12.4701 34.6094 12.7873 34.9266 12.9459 34.9266C13.263 34.9266 13.5802 34.768 14.056 34.768C14.2145 34.768 14.2145 35.0852 14.2145 35.0852C14.6903 35.0852 15.166 34.6094 15.4832 34.768L16.1175 34.9266C16.2761 34.9266 16.4347 34.9266 16.5933 34.9266H16.9105C17.5448 34.768 18.3377 34.6094 19.1306 34.2922C18.6549 34.2922 18.3377 34.4508 17.862 34.1336C18.0205 34.2922 18.0205 34.2922 17.862 34.2922L17.7034 34.1336C18.0205 34.1336 18.4963 33.975 18.8135 34.1336C18.8135 34.1336 18.972 33.975 19.1306 33.975C19.2892 33.975 19.2892 34.1336 19.2892 34.1336C19.2892 34.1336 19.4478 34.1336 19.6064 34.1336C19.4478 33.975 18.8135 33.8164 18.8135 33.8164C18.1791 33.8164 17.5448 33.8164 16.9105 33.8164C17.3862 33.8164 18.0205 33.8164 18.4963 33.8164C18.6549 33.8164 18.8135 33.8164 18.972 33.6578C19.2892 33.6578 19.6064 33.6578 19.9235 33.6578C20.2407 33.6578 20.5579 33.4992 20.7165 33.3406C20.875 33.3406 21.0336 33.3406 21.1922 33.3406H21.0336C21.1922 33.3406 21.1922 33.3406 21.3508 33.4992V33.3406C22.7781 33.182 24.2053 33.0233 25.6326 32.7061C25.7911 32.7061 25.7911 32.7061 25.9497 32.5475V32.7061C25.9497 32.8647 25.9497 33.0234 25.9497 33.3406L25.7911 33.182L25.6326 33.3406C25.3154 33.182 24.8396 33.182 24.5225 33.3406L24.6811 33.4992C24.8396 33.4992 24.9982 33.3406 24.6811 33.3406C25.1568 33.4992 25.474 33.4992 25.9497 33.3406C25.9497 33.4992 25.9497 33.6578 25.9497 33.8164C25.9497 34.1336 25.9497 34.2922 25.9497 34.6094C24.6811 35.2438 24.9982 36.5127 23.7296 38.4159C24.5225 36.9885 24.2053 39.6848 23.0952 40.9536C21.3508 42.8569 21.668 46.029 20.7165 48.5667C20.3993 49.2011 20.3993 49.9942 20.0821 50.7872C19.2892 52.8491 19.2892 54.9109 18.972 57.1314C18.972 57.29 18.972 57.6072 18.972 57.9244C18.972 58.2417 19.1306 59.0347 19.9235 59.6691C20.7165 60.3035 21.3508 60.3035 21.8266 60.3035C22.1437 60.3035 22.4609 60.1449 22.6195 60.1449C23.571 59.8277 24.2053 59.3519 24.6811 58.8761C25.6326 58.083 26.2669 57.29 27.0598 56.3384C27.8527 55.3868 28.3285 54.4351 28.8042 53.4835C29.1214 52.8491 29.7557 52.3732 30.0729 51.8974C30.5487 51.1044 31.0244 50.47 31.3416 49.677C30.8658 50.3114 30.5487 51.1044 30.0729 51.7388C29.7557 52.2146 29.9143 51.1044 30.2315 50.7872C30.2315 50.6286 30.7072 50.6286 30.8658 50.47C31.0244 50.1528 31.183 49.8355 31.3416 49.3597C31.3416 49.2011 31.6587 49.3597 31.6587 49.3597C31.9759 48.8839 31.8173 48.2495 32.1345 47.9323L32.7688 47.4565C32.9274 47.2979 32.9274 47.2979 33.086 47.1393L33.2446 46.822C33.4032 46.5048 33.4032 46.3462 33.5617 46.029C33.7203 45.8704 34.0375 45.5532 34.1961 45.3946C34.0375 45.8704 34.0375 46.3462 34.3547 46.029C34.6718 45.5532 34.8304 44.9188 35.1476 44.443C35.3062 44.2844 35.4647 44.1257 35.6233 43.8085C35.9405 43.3327 36.2577 42.8569 36.5748 42.3811C36.5748 42.2225 37.0506 41.7467 37.2092 41.2709L37.5263 41.4294C37.6849 41.4294 37.8435 41.5881 38.0021 41.5881C38.4778 41.9053 39.1122 42.0639 39.5879 42.2225C40.2223 42.3811 40.8566 42.6983 41.4909 42.6983C41.9667 42.8569 42.4424 43.1741 42.7596 43.3327C42.9182 43.3327 42.9182 43.3327 43.0768 43.3327C43.0768 43.4913 43.2354 43.4913 43.2354 43.4913L43.5525 43.6499H43.7111C43.8697 43.6499 43.8697 43.6499 43.7111 43.4913L43.8697 43.6499H43.7111L44.504 44.1258H44.6626C44.8212 44.1258 45.1384 44.2844 45.1384 44.443L45.2969 44.6016L45.9313 44.9188C46.407 45.0774 46.7242 45.3946 47.1999 45.5532C48.4686 46.1876 50.5302 46.6634 52.116 47.1393C52.4332 47.1393 52.909 47.2979 53.2261 47.1393C53.7019 47.1393 54.019 46.6634 53.8605 46.3462C53.5433 45.7118 53.3847 45.0774 52.909 43.9671Z" fill="#45C7F0"/>
</svg>
