<svg width="103" height="99" viewBox="0 0 103 99" fill="none" xmlns="http://www.w3.org/2000/svg">
<path d="M99.6531 32.3518L99.8117 32.1932L99.3359 31.876L99.6531 32.3518Z" fill="#45C7F0"/>
<path d="M98.0668 30.29C98.0668 30.4486 97.9082 30.4487 97.9082 30.4487C98.384 30.7659 98.8597 31.083 99.3355 31.5589C99.6526 30.6072 97.9082 30.7659 98.0668 30.29Z" fill="#45C7F0"/>
<path d="M97.9082 29.814C97.9082 29.1796 97.4324 29.1796 97.1152 29.021C97.591 29.1796 97.591 30.1312 97.9082 29.814Z" fill="#45C7F0"/>
<path d="M59.2139 0.630673H59.3725C59.2139 0.472067 59.2139 0.472067 59.2139 0.630673Z" fill="#45C7F0"/>
<path d="M46.0516 2.05807L45.893 2.37525C48.2718 1.42362 50.9677 1.89945 53.505 1.74084L53.3465 1.89946C56.5181 2.05806 59.6898 2.21666 62.8615 2.53387C66.0331 2.85108 69.0462 3.32691 72.2179 4.27854C72.0593 4.27854 72.0593 4.43716 71.9007 4.43716C72.2179 4.43716 72.6937 4.27855 73.0108 4.43716C73.0108 4.59576 72.8522 4.59572 72.6937 4.59572C73.8037 5.54736 76.6583 5.70599 77.134 6.65763C77.4512 6.81623 77.7683 6.65761 77.6098 6.3404C82.2087 8.71948 86.4904 12.3674 89.9793 16.3326C90.1379 16.6498 89.9793 16.6498 89.8207 16.8084C91.5651 18.2358 92.9924 20.1391 94.261 22.201C95.3711 24.2628 96.3226 26.3247 97.2741 28.5452C97.5913 28.5452 97.2741 28.0694 97.7499 28.228C97.4327 26.8006 96.0055 26.0075 95.8469 24.58H96.164C95.8469 23.6284 95.5297 24.7386 95.3711 23.6284C95.3711 23.1526 95.6883 23.6284 95.6883 23.3112C94.5782 21.5666 93.6267 19.5047 92.0409 18.2358C92.1995 17.6014 90.7722 16.3326 90.6136 15.5396C90.1379 15.2223 89.8207 14.7465 89.3449 14.9051C87.1248 12.0502 84.2703 9.35391 81.2572 7.29204C79.6713 6.34041 77.9269 5.38875 76.1825 4.59572C74.4381 3.8027 72.6937 3.1683 70.9492 2.69249C69.0462 2.69249 67.3018 2.21665 65.3988 1.58223C63.4958 1.10641 61.4342 0.472016 59.3726 0.472016C59.3726 0.472016 59.3726 0.472006 59.3726 0.313401C57.9454 0.472006 56.0424 0.313391 54.4565 0.154785C53.9808 0.313391 53.505 0.471977 53.0293 0.630583C48.2718 0.154766 43.1971 0.630622 38.5982 2.05807C33.8407 3.48552 29.4003 5.54736 24.96 7.76784C20.0439 10.4641 15.7621 13.4777 11.9561 17.4428C8.30869 21.2493 5.61276 26.0075 4.18551 31.4001C4.02693 31.4001 4.02693 31.4001 4.02693 31.0829C3.07543 34.0964 1.96534 36.7927 1.48959 39.6476H1.331C1.01384 43.2955 0.538086 47.1021 0.538086 50.9086C0.538086 54.7151 1.01383 58.5217 2.2825 61.6938C3.23401 65.8175 4.97843 70.0999 7.51576 73.9064C9.89452 77.8716 12.9076 81.3609 16.0793 84.533L15.9207 84.6916C18.6166 87.0707 21.3125 89.2912 24.3256 91.353C27.3387 93.2563 30.5104 94.8424 33.9992 95.794C37.4881 97.2214 41.2941 97.8559 45.1001 98.1731C48.9061 98.4903 52.7121 98.4903 56.3595 98.4903C57.4696 98.6489 58.7383 98.4903 60.007 98.1731C61.2756 97.8559 62.5443 97.5387 63.813 96.9042C66.3503 95.9526 68.5705 94.8424 70.6321 94.3665C74.9138 93.2563 78.8784 91.0358 82.2087 88.1809C85.5389 85.1674 88.2349 81.6781 90.2965 77.8716C92.8338 74.6995 94.7368 71.0515 96.3226 67.4036C97.9085 63.7556 99.0186 59.9491 99.9701 56.1426C99.8115 54.2393 100.129 52.3361 100.446 50.2742C100.763 48.2123 100.922 46.1504 100.604 44.0886L100.446 44.2471C101.08 42.6611 98.86 41.0751 99.8115 39.9648L99.9701 40.1234C100.446 39.1718 98.2256 38.696 98.7014 38.0615H98.3842C98.0671 37.1099 98.7014 37.9029 98.5428 37.1099C98.3842 36.7927 98.067 37.1099 98.067 36.6341C99.1771 36.1583 97.1156 34.4136 98.3842 33.9378C98.5428 34.4136 98.5428 32.9861 99.3357 34.0964C99.3357 33.7792 98.7014 32.1931 98.2256 32.5103C97.5913 32.6689 96.957 32.1931 96.7984 33.3034H97.2741C96.957 33.7792 97.1156 33.6206 96.7984 33.7792C97.1156 35.0481 96.6398 35.3652 96.6398 36.3169C97.2741 36.7927 97.2741 37.5857 97.2741 38.0615L97.1155 38.3788C96.6398 38.8546 98.3842 39.489 97.4327 39.3304C98.2256 41.7095 98.7014 44.5644 98.86 47.4193C99.1771 47.7365 98.86 49.6397 99.4943 49.0053C99.1771 49.3225 98.86 50.1156 98.86 50.75C98.7014 51.3844 98.7014 52.1774 98.7014 52.4947C98.7014 52.4947 98.5428 52.4946 98.5428 52.336C97.5913 53.7635 99.3357 54.2393 98.067 55.5082C98.3842 55.6668 98.3842 56.3012 98.2256 56.9356C98.0671 57.57 97.9085 58.3631 98.2256 58.8389C98.0671 58.9975 97.9085 58.9975 97.7499 58.8389C97.2741 61.218 96.0055 63.7556 95.2125 65.6589C95.2125 67.5622 92.9924 69.4655 93.151 71.3687C92.358 72.479 90.9308 74.065 90.1379 75.6511V75.4925C89.8207 75.9683 89.5035 76.4441 89.3449 76.9199C89.0278 77.3957 88.7106 77.8715 88.3934 78.3474C87.9177 79.299 87.2834 80.092 87.1248 80.8851C86.0147 80.7265 85.5389 81.5195 84.746 81.9953C84.1117 83.2642 82.0501 85.1674 80.7814 86.7535C80.3057 86.5949 79.5128 88.0223 79.037 87.5465C77.134 89.767 74.4381 91.8289 71.2664 93.0977C68.2533 94.5252 64.9231 95.3182 61.7514 95.4768C61.1171 95.9526 60.3241 96.9042 59.5312 97.5387C59.3726 97.5387 59.3726 97.38 59.5312 97.38C58.4211 97.6973 57.3111 97.2214 56.201 97.5387C56.201 97.3801 56.201 97.38 56.3595 97.38C55.2495 97.8559 54.1394 97.0628 52.8707 97.5387V97.38L52.0778 97.5387C52.0778 97.3801 52.0778 97.0629 52.5535 97.0629C47.6374 96.9043 42.7213 96.2698 37.8052 95.1596C32.8892 94.0493 27.9731 92.3047 23.6913 89.6084H24.1671C23.5327 89.2912 22.8984 89.1326 22.2641 88.8153C22.2641 88.6567 22.4226 88.8153 22.5812 88.8153C20.6782 87.0707 18.2995 85.9604 16.7136 84.0572C16.8722 84.0572 17.1894 84.0572 17.0308 83.74C16.2379 83.2642 15.7621 82.6298 15.4449 82.1539C15.1278 81.6781 14.8106 81.2023 14.0177 81.2023C14.0177 81.0437 14.1763 80.8851 14.3349 80.8851C12.5904 79.1404 10.846 77.0786 9.41877 75.0167C7.99152 72.7962 6.88143 70.5757 5.92993 68.1966C4.50267 66.4519 3.86834 64.3901 3.23401 62.1696C2.59968 59.9491 2.28251 57.7286 1.64817 55.5082H1.80675C1.17242 52.6533 1.17242 49.6397 1.48959 46.6262C1.80675 43.6127 2.44109 40.5993 3.23401 37.7443C4.02693 35.3653 4.18551 33.6206 5.13701 31.4001H5.45418C5.77135 29.1796 7.04001 27.2764 8.30868 25.5317C9.57735 23.787 11.1632 22.0424 12.1147 19.9805V20.4563C12.1147 19.5047 14.0177 18.7116 13.2248 18.2358C13.5419 18.0772 13.7005 17.9186 14.0177 17.9186C14.652 16.3326 15.7621 15.5396 17.0308 14.7465C18.2995 13.9535 19.5681 13.1604 20.8368 11.8916V12.2088C21.4711 11.4158 22.4226 10.7814 23.2156 10.4642C23.2156 10.6228 23.2156 10.6228 23.057 10.7814C24.6428 10.3056 25.9115 9.5125 27.3387 8.56087C28.766 7.60923 30.0347 6.8162 31.6205 6.18178L31.4619 6.65763C32.7306 5.54739 35.5851 4.91296 37.3295 4.11993V4.27854L38.281 3.64413L38.4396 3.96131C41.1355 3.32689 43.5143 2.53389 46.0516 2.05807Z" fill="#45C7F0"/>
<path d="M96.9572 36.9515C96.9572 36.7929 96.9572 36.7929 96.9572 36.6343C96.7986 36.6343 96.9572 36.7929 96.9572 36.9515Z" fill="#45C7F0"/>
<path d="M67.3008 2.85107L67.6179 3.00964L67.3008 2.85107Z" fill="#45C7F0"/>
<path d="M67.9355 3.48549H68.0941C67.7769 3.32688 67.6183 3.00968 67.3012 2.85107C66.8254 3.00968 68.2527 3.64409 67.9355 3.48549Z" fill="#45C7F0"/>
<path d="M67.7766 3.64404C67.4594 3.64404 67.9352 3.96123 68.0938 3.96123C67.7766 3.80262 68.2524 3.80265 67.7766 3.64404Z" fill="#45C7F0"/>
<path d="M59.6892 16.3326L59.8478 16.6498C60.0064 15.6982 60.9579 15.8568 61.275 15.2224V15.381C62.7023 14.4293 63.3366 13.0019 64.2881 11.5745L64.4467 11.733C64.4467 11.5744 64.2881 11.4158 64.2881 11.2572L64.4467 11.4158C65.081 11.5744 64.7639 10.4642 65.2396 10.6228C65.2396 10.4642 65.081 10.3056 64.9225 10.3056C65.5568 9.19534 66.1911 8.08513 66.5083 6.81628C66.6669 6.81628 66.8255 6.81624 66.984 6.97485C66.6669 5.5474 67.4598 4.91298 68.0941 3.96135C67.9356 3.80274 67.777 3.96134 67.6184 3.80273C67.1426 3.96134 67.9356 4.59576 67.4598 4.59576L67.3012 4.4372C67.1426 4.5958 67.777 4.75438 67.4598 4.75438C67.3012 4.75438 67.1426 4.59576 67.1426 4.59576C66.984 5.07158 66.6669 5.38883 66.984 6.02325C66.5083 5.86465 66.6669 6.49904 66.1911 6.34043C66.3497 6.49904 66.1911 6.65768 66.5083 6.81628C65.874 7.4507 65.5568 8.24371 65.081 8.87814C64.6053 9.67116 64.1295 10.3056 63.6538 10.94C63.8124 12.2088 62.2265 12.0503 61.7508 13.0019C61.7508 13.0019 61.7508 13.0019 61.7508 12.8433C61.7508 13.3191 61.4336 13.6363 60.9579 13.7949V14.2707C58.5791 14.9051 56.9933 16.8084 54.7731 17.6014C53.5044 18.0773 52.2358 18.5531 51.2843 18.8703C50.1742 19.3461 49.0641 19.8219 48.1126 20.9322C48.1126 20.7736 48.1126 20.7736 48.1126 20.7736C47.4782 21.2494 46.6853 20.9322 46.051 21.408V21.2494C44.6237 22.5182 42.4036 22.0424 40.9763 23.4699C38.9147 23.9457 36.6946 24.8973 34.7916 26.0075L34.633 25.849C33.2057 26.9592 31.1441 26.8006 29.7169 27.9108C27.8139 28.3866 27.021 30.7657 24.9594 31.0829C23.5321 30.7657 23.2149 33.3034 21.7877 32.8276C19.0918 32.5104 17.8231 34.255 15.9201 35.8411C14.81 35.8411 13.8585 36.3169 12.907 36.6341C11.9555 36.9513 10.8454 37.1099 9.89392 36.4755C8.78383 37.1099 7.99092 35.3653 7.03941 35.3653V35.6825C6.72225 34.8895 6.08791 36.6341 5.92933 35.5239C5.77074 34.8894 5.295 36.7928 5.295 36.1583V36.4755C4.97783 36.4755 5.29499 36.1583 5.13641 35.9997C5.13641 35.9997 4.97783 36.4755 4.97783 36.3169C5.13641 35.0481 4.34349 36.4755 4.50208 35.2067C4.66066 35.2067 4.34349 34.7309 4.66066 34.4137C4.66066 34.2551 4.18491 34.255 4.18491 34.8895C4.18491 35.5239 3.86774 35.9997 4.18491 36.4755V35.9997C4.18491 36.4755 4.18491 36.1583 4.18491 36.6341C4.50208 36.6341 4.50207 37.4272 4.66066 37.5858C4.81924 37.11 4.97782 37.4272 5.13641 37.4272V37.7444C5.13641 38.2202 5.61216 36.7927 5.45358 37.5858C6.08791 37.4272 6.88083 37.5858 7.51516 37.7444C7.67375 37.4272 8.1495 37.903 7.99092 37.2685C7.99092 38.0616 8.62525 38.2202 8.78384 38.2202V38.3788C9.101 39.3304 9.41817 37.5857 9.73534 38.696C9.89392 37.903 10.5283 39.0132 10.6868 38.0616C10.6868 38.2202 10.6868 38.3788 10.6868 38.5374C11.4798 38.5374 12.2727 38.8546 12.907 38.696C13.3828 37.903 14.3343 38.8546 14.4928 37.7444C14.81 37.903 15.6029 38.0616 15.9201 37.5858V37.7444C16.3959 37.5858 17.1888 37.2685 17.1888 36.4755C17.6645 37.2685 17.8231 37.1099 18.1403 37.2685C18.2989 36.7927 19.0918 36.4755 19.4089 35.9997C19.7261 36.3169 19.7261 35.6825 20.0433 36.1583C20.8362 34.4137 22.7392 33.7792 24.6422 33.9378C24.6422 33.462 24.4836 32.669 24.4836 32.1932C24.4836 32.1932 24.6422 32.3518 24.4836 32.3518C24.6422 32.0345 25.2765 32.5104 25.4351 32.3518C25.4351 32.5104 25.4351 32.5104 25.4351 32.5104C25.5937 32.1932 26.228 32.669 26.228 32.0346L26.3866 32.1932V31.876C26.5452 32.0346 26.5452 32.3518 26.5452 32.3518C28.924 31.4001 30.6684 29.1797 33.0471 28.0694V28.228L33.3643 27.7522C33.3643 27.9108 33.3643 27.9108 33.3643 27.9108C34.1572 27.9108 34.4744 27.1178 34.9501 26.9592C34.9501 27.1178 34.9501 27.2764 35.1087 27.2764C35.2673 26.4834 36.0602 27.5936 35.7431 26.4834L35.9016 26.8006C36.8531 26.0075 38.1218 25.5317 39.3905 25.3731C40.0248 23.9457 41.4521 24.5801 42.4036 23.4699V23.6284C43.6722 22.5182 45.2581 22.994 46.6853 22.3596C47.3197 22.201 47.6368 21.8838 48.2712 21.7252L48.4298 22.0424C48.7469 21.408 49.3813 21.408 50.0156 21.408C50.6499 21.408 51.2843 21.408 51.6014 20.6149V20.9322C51.6014 20.2978 52.2358 20.7736 51.9186 19.9805L52.2358 20.1391C52.3944 18.7117 53.663 20.1391 54.1388 18.8703V19.0289C54.2973 18.7117 54.4559 18.5531 54.7731 18.5531V18.7117C55.8832 19.1875 56.2004 17.76 56.8347 17.4428L56.9933 17.9187C57.1519 17.2843 57.9448 17.2842 58.2619 16.8084L58.4205 16.967V16.6498L58.5791 16.967C58.8963 17.4429 59.2134 16.8084 59.6892 16.3326Z" fill="#45C7F0"/>
<path d="M48.7476 2.3751C48.7476 2.3751 48.4305 2.21649 48.589 2.21649C48.589 2.21649 48.589 2.2165 48.7476 2.3751Z" fill="#45C7F0"/>
<path d="M42.7215 11.2572L43.0387 11.5745C42.8801 10.7814 43.673 10.94 43.673 10.4642V10.6228C44.4659 9.8298 44.7831 8.71957 45.2588 7.60933L45.4174 7.7679C45.4174 7.60929 45.2588 7.45072 45.2588 7.45072L45.4174 7.60933C46.0518 7.76794 45.576 6.81626 46.0518 6.97487C46.0518 6.81626 45.8932 6.65769 45.7346 6.65769C45.8932 6.34048 46.2103 5.86464 46.3689 5.54743C46.5275 5.07161 46.6861 4.75441 46.6861 4.11999C46.8447 4.11999 46.8447 4.2786 47.1618 4.2786C47.0033 3.64418 47.1618 3.16837 47.479 2.85116C47.9548 2.37534 48.4305 2.2167 48.4305 2.2167C48.4305 2.2167 48.2719 2.21674 48.2719 2.05813C48.1133 1.89953 48.1133 1.89951 47.9548 1.7409V1.89952C47.9548 2.05812 47.9548 2.21674 47.7962 2.05813L47.6376 1.89952C47.3204 1.89952 47.9548 2.37531 47.6376 2.37531C47.479 2.21671 47.479 2.05813 47.479 2.05813L47.1618 2.37531C47.0033 2.53392 47.0033 2.53394 46.8447 2.69255C46.6861 2.85115 46.6861 3.16836 46.6861 3.48557C46.2103 3.16836 46.3689 3.80279 45.8932 3.64419C46.0518 3.80279 45.8932 3.96138 46.2103 4.11999C45.8932 4.27859 45.7346 4.59579 45.576 4.7544L45.4174 5.07163L45.2588 5.54743C44.9417 6.02324 44.6245 6.65767 44.3073 7.13348C44.7831 8.24372 43.3558 7.92651 43.1972 8.71954C43.1972 8.71954 43.1972 8.71954 43.0387 8.71954C43.0387 9.03675 43.0387 9.35396 42.7215 9.51257L42.8801 9.98842C41.1357 10.6228 40.5013 12.2089 39.0741 13.0019C37.4882 14.1122 35.9024 14.5879 35.4266 16.6498C35.4266 16.4912 35.2681 16.4912 35.2681 16.4912C34.9509 16.967 34.3166 16.967 34.158 17.4429V17.2842C33.6822 18.7117 31.9378 18.5531 31.462 19.9806C30.1934 20.615 28.9247 21.7252 27.656 22.6769L27.4975 22.5183C26.7045 23.4699 25.1187 23.1527 24.1672 24.1043C22.8985 24.2629 22.4228 26.3248 20.9955 26.4834C19.8854 26.0076 19.8854 28.3866 18.7753 27.7522C16.7138 26.9592 15.9208 28.5452 14.8108 29.9727C14.0178 29.9727 13.3835 30.2899 12.7492 30.6072C12.1148 30.9244 11.3219 31.083 10.6876 30.6072C10.0532 31.4002 9.26033 29.8141 8.62599 29.9727V30.2899C8.30883 29.4969 8.15024 31.4002 7.83308 30.2899C7.67449 29.6555 7.51591 31.7174 7.35733 30.9243V31.2416C7.19874 31.4002 7.35733 30.9243 7.19875 30.7657C7.19875 30.7657 7.19874 31.2416 7.04016 31.0829C7.04016 29.8141 6.56441 31.4001 6.56441 29.9727C6.72299 29.9727 6.40582 29.4969 6.56441 29.1797C6.56441 29.0211 6.24724 29.1797 6.24724 29.6555C6.24724 30.2899 6.08866 30.7657 6.24724 31.2416V30.7657C6.24724 31.2415 6.24724 30.9244 6.24724 31.2416C6.40582 31.2416 6.56441 31.876 6.72299 32.1932C6.88157 31.7174 7.04016 32.0346 7.04016 32.0346V32.3518C7.04016 32.8276 7.35733 31.4002 7.19875 32.1932C7.6745 32.0346 8.15025 32.0346 8.78458 31.876C8.78458 31.5588 9.26033 31.876 9.10174 31.2416C9.26033 32.0346 9.73608 32.1932 9.89466 32.0346V32.1932C10.2118 33.1448 10.2118 31.2415 10.529 32.3518C10.529 31.5587 11.0048 32.5104 11.1633 31.5587C11.1633 31.7174 11.3219 31.876 11.3219 32.0346C11.7977 32.0346 12.432 32.1932 12.9078 32.1932C13.0663 31.4002 13.8593 32.3518 13.8593 31.2416C14.1764 31.4002 14.6522 31.7174 14.9693 31.0829V31.2416C15.2865 31.083 15.7623 30.7657 15.7623 30.1313C16.238 30.9243 16.238 30.7657 16.5552 30.9243C16.5552 30.4485 17.1895 30.2899 17.3481 29.8141C17.5067 30.1313 17.5067 29.4969 17.8238 30.1313C18.2996 28.5452 19.5683 28.3867 20.9955 28.7039C20.9955 28.3867 20.6784 27.5936 20.6784 27.1178C20.6784 27.1178 20.8369 27.2764 20.6784 27.2764C20.8369 27.1178 21.3127 27.5936 21.3127 27.2764C21.3127 27.435 21.3127 27.435 21.3127 27.435C21.3127 27.1178 21.947 27.7522 21.7884 27.1178L21.947 27.2764V26.9592C22.1056 27.1178 22.2642 27.435 22.1056 27.435C23.6915 26.8006 24.8015 24.8973 26.546 24.2629V24.4215L26.7045 23.9457C26.7045 24.1043 26.7045 24.1043 26.7045 24.1043C27.3389 24.2629 27.3389 23.4699 27.8146 23.3113C27.8146 23.4699 27.9732 23.6285 27.9732 23.6285C27.9732 22.994 28.7661 23.9457 28.2904 22.8354L28.449 23.1527C29.0833 22.3596 29.8762 21.8838 30.6691 21.5666C30.6691 20.2978 31.9378 20.615 32.0964 19.5048L32.255 19.6633C32.7307 18.5531 33.9994 18.5531 34.7923 17.9187C35.2681 17.7601 35.2681 17.4429 35.5852 17.1257L35.7438 17.2842C35.7438 16.0154 37.6468 16.967 37.4882 15.6982L37.6468 16.0154C37.3296 15.5396 38.1226 15.8568 37.4882 15.2224L37.8054 15.381C37.3296 14.1122 38.9155 15.2224 38.7569 14.1121L38.9155 14.2707C38.9155 13.9535 38.9155 13.7949 39.2326 13.7949V13.9536C40.1842 14.2708 40.0256 13.1605 40.3427 12.6847L40.6599 13.0019C40.5013 12.5261 41.1357 12.3675 41.2942 12.0503L41.4528 12.2089L41.2942 11.8917L41.6114 12.2089C42.4043 12.2089 42.5629 11.5745 42.7215 11.2572Z" fill="#45C7F0"/>
<path d="M34.9506 4.91301L34.792 4.75439L35.1092 4.91301H34.9506Z" fill="#45C7F0"/>
<path d="M35.5849 5.23028C35.5849 5.23028 35.7435 5.23024 35.7435 5.38885C35.4263 5.23024 35.1092 5.07166 34.9506 4.91305C34.4748 4.59584 35.9021 5.38889 35.5849 5.23028Z" fill="#45C7F0"/>
<path d="M35.5852 5.23047C35.4266 5.23047 35.7438 5.38904 35.9024 5.38904C35.5852 5.23043 35.9024 5.38907 35.5852 5.23047Z" fill="#45C7F0"/>
<path d="M33.2063 10.6228L33.5234 10.94C33.2063 10.3055 33.8406 10.6227 33.8406 10.1469L33.9992 10.3055C34.6335 9.98833 34.4749 9.03673 34.6335 8.40231L34.7921 8.56087C34.7921 8.40227 34.6335 8.24369 34.6335 8.24369L34.7921 8.40231C35.2679 8.71952 34.7921 7.92647 35.1093 8.08508C35.1093 8.08508 34.9507 7.76784 34.7921 7.76784C34.9507 7.29203 35.2679 6.81621 35.2679 6.18179C35.2679 6.18179 35.4264 6.34041 35.585 6.49902C35.1093 5.54738 35.585 5.54736 35.9022 5.38876C35.7436 5.23015 35.585 5.23018 35.4264 5.07158C35.1093 4.91297 35.9022 5.54736 35.4264 5.38876L35.2679 5.23019C35.1093 5.23019 35.7436 5.54736 35.4264 5.38876C35.2678 5.23015 35.1093 5.23019 35.1093 5.23019C35.1093 5.3888 34.7921 5.38879 35.2679 5.86461C34.7921 5.54739 35.1093 6.0232 34.6335 5.70599C34.7921 5.8646 34.6335 5.86458 34.9507 6.18179C34.3164 6.499 34.1578 7.29204 33.682 7.92646C34.3163 8.87809 33.0477 8.24367 33.0477 8.71949C33.2063 9.0367 33.0477 9.19533 32.8891 9.19533L33.0477 9.67113C31.779 9.67113 31.6204 10.6227 30.6689 10.94C29.7174 11.4158 28.6073 11.0986 28.4488 12.8432C28.4488 12.6846 28.2902 12.6846 28.2902 12.6846C28.1316 13.0018 27.6558 12.8433 27.6558 13.1605V13.0019C27.4973 14.1121 26.3872 13.6363 26.3872 14.7465C25.5942 15.0637 24.9599 15.5396 24.3256 16.174L24.167 16.0154C23.6912 16.6498 22.7397 16.0153 22.264 16.6498C21.4711 16.4912 21.3125 18.2359 20.5196 17.9186C19.8852 17.1256 19.8852 19.3461 19.2509 18.3944C17.9822 17.1256 17.5065 18.2358 16.8721 19.3461C16.0792 18.8703 15.4449 20.4563 14.4934 19.5047C14.1762 20.2977 13.7005 18.7116 13.2247 18.8702V19.1875C13.0661 18.3944 13.0661 20.2977 12.749 19.1875C12.5904 18.553 12.749 20.6149 12.5904 19.8219V20.1391C12.4318 20.2977 12.5904 19.8219 12.4318 19.6633C12.4318 19.6633 12.4318 20.1391 12.4318 19.9805C12.2732 18.8703 12.2732 20.2977 12.1146 18.8702C12.1146 18.8702 11.9561 18.3944 12.1146 18.0772C12.1146 17.9186 11.9561 18.0772 11.9561 18.5531C11.9561 19.1875 11.9561 19.6633 12.1146 20.1391V19.6633C12.1146 20.1391 12.1146 19.8219 12.2732 20.1391C12.4318 20.1391 12.4318 20.7735 12.5904 21.0908C12.5904 20.6149 12.749 20.9321 12.749 20.9321V21.2493C12.749 21.7251 12.749 20.2977 12.9076 21.0908C13.0661 20.7735 13.3833 20.7735 13.7005 20.7735C13.7005 20.4563 13.8591 20.7735 13.8591 20.1391C14.0176 20.9321 14.1762 21.0908 14.3348 20.9321V21.0908C14.652 22.0424 14.3348 20.1391 14.652 21.4079C14.4934 20.6149 14.9691 21.5665 14.9691 20.6149C14.9691 20.7735 14.9691 20.9322 15.1277 21.0908C15.4449 21.0908 15.7621 21.2493 15.9206 21.2493C15.9206 20.4563 16.3964 21.5665 16.3964 20.4563C16.555 20.6149 16.8721 21.0907 17.0307 20.6149V20.7735C17.1893 20.6149 17.5065 20.6149 17.5065 19.9805C17.8237 20.9321 17.8236 20.7735 17.9822 20.9321C17.9822 20.4563 18.2994 20.6149 18.458 20.1391C18.6166 20.6149 18.6166 19.9805 18.7751 20.6149C19.0923 19.3461 19.8852 19.5047 20.8367 20.2977C20.8367 19.9805 20.6782 19.1875 20.6782 18.7117V18.8702C20.6782 18.7116 20.9953 19.3461 21.1539 19.1875C21.1539 19.3461 21.1539 19.3461 21.1539 19.3461C21.1539 19.0289 21.4711 19.8219 21.4711 19.1875V19.3461V19.0289C21.4711 19.1875 21.6297 19.5047 21.6297 19.5047C22.7397 19.3461 23.2155 17.9186 24.167 17.6014V17.76V17.2842C24.167 17.4428 24.167 17.4428 24.167 17.4428C24.4842 17.6014 24.4842 16.967 24.8013 16.967C24.8013 17.1256 24.9599 17.2842 24.9599 17.2842C24.8013 16.6498 25.5942 17.76 25.1185 16.6498L25.2771 16.967C25.5943 16.3326 26.07 16.174 26.5457 16.0154C26.3872 14.9051 27.3387 15.5396 27.1801 14.5879L27.3387 14.7465C27.4973 13.7949 28.2902 14.1121 28.7659 13.7949C29.0831 13.7949 29.0831 13.4776 29.2417 13.319L29.4003 13.4777C29.2417 12.3674 30.6689 13.7949 30.3518 12.526L30.5103 12.8432C30.1932 12.3674 30.8275 12.8432 30.1932 12.0502L30.3518 12.2088C29.876 10.94 31.1447 12.3674 30.9861 11.5744L31.1447 11.733C31.1447 11.5744 31.1447 11.4158 31.3033 11.4158V11.5744C32.0962 12.0502 31.779 11.0986 31.9376 10.94L32.2548 11.2572C32.0962 10.7814 32.5719 10.94 32.5719 10.6228L32.7305 10.7814L32.5719 10.4642L32.8891 10.7814C33.0477 11.2572 33.0477 10.7814 33.2063 10.6228Z" fill="#45C7F0"/>
<path d="M96.7982 38.5371H96.6396L96.9568 38.6957L96.7982 38.5371Z" fill="#45C7F0"/>
<path d="M98.2255 37.9026V38.0612C98.2255 37.744 98.2255 37.4268 98.2255 37.1096C98.2255 36.951 98.2255 37.1096 98.2255 37.4268C98.3841 37.744 98.3841 38.0612 98.2255 37.9026Z" fill="#45C7F0"/>
<path d="M98.225 37.7444C98.0664 37.5858 98.0664 37.903 98.0664 38.0616C98.0664 37.7444 98.225 38.2202 98.225 37.7444Z" fill="#45C7F0"/>
<path d="M78.2438 33.1446L78.0853 33.4618C79.0368 33.1446 79.6711 34.0962 80.6226 34.0962L80.464 34.2548C82.367 35.2065 84.4286 35.5237 86.6488 35.9995L86.4902 36.1581C86.6488 35.9995 86.8074 35.8409 86.9659 35.9995C86.9659 36.1581 86.8074 36.1581 86.8074 36.1581C87.1245 36.9511 88.2346 36.1581 88.3932 36.6339C88.5518 36.6339 88.7104 36.3167 88.5518 36.1581C90.2962 36.4753 92.0406 36.9511 93.785 36.7925C93.785 36.9511 93.785 37.1097 93.785 37.2683C94.2608 37.1097 94.4194 36.9511 95.0537 36.9511C95.5295 36.9511 96.0052 37.1097 96.3224 37.2683C97.1153 37.5855 97.591 37.9027 98.0668 38.0614C98.0668 37.7441 98.0668 37.7442 98.0668 37.5856C97.9082 37.2683 97.4325 38.0614 97.1153 37.5856L97.2739 37.4269C97.1153 37.1097 96.9567 38.0614 96.7981 37.5856C96.7981 37.2683 96.9567 37.2683 96.9567 37.2683C96.3224 37.1097 95.688 36.6339 94.7365 37.1097C94.7365 36.4753 94.1022 36.9511 93.9436 36.3167C93.785 36.4753 93.6265 36.3167 93.4679 36.7925C92.3578 36.3167 91.2477 36.1581 89.979 35.8409C88.7104 35.5237 87.6003 35.5237 86.4902 35.0479C85.0629 35.6823 84.27 33.9376 83.0013 33.779C83.0013 33.779 83.0013 33.779 83.0013 33.6204C82.5256 33.6204 81.8913 33.6204 81.4155 33.1446L80.7812 33.4618C79.5125 32.5102 77.9267 31.8758 76.3408 31.3999C74.755 30.9241 73.1692 30.7655 71.4247 30.2897C69.5217 29.9725 67.7773 29.6553 66.0329 29.6553C64.2885 29.6553 62.5441 29.9725 60.7996 30.9241C60.7996 30.7655 60.7996 30.7655 60.7996 30.7655C59.8481 31.0827 58.7381 30.9241 57.7865 31.3999V31.2413C56.6765 31.8758 55.4078 32.3516 54.2977 32.6688C53.029 33.1446 51.9189 33.6204 51.126 34.5721C48.5887 35.6823 45.7342 37.2683 43.1968 38.6958L43.0383 38.5372C41.1353 39.9647 38.4393 39.806 36.5363 41.0749C34.1576 41.5507 32.2546 43.9298 29.7172 44.0884C27.9728 43.6126 26.7041 46.3089 24.9597 45.5158C21.788 44.7228 19.2507 46.3088 16.3962 47.5777C14.9689 47.5777 13.7003 47.8949 12.4316 48.2121C11.1629 48.5293 9.73569 48.688 8.46702 48.0535C7.19835 48.8466 5.77109 47.1019 4.50242 47.2605V47.5777C4.02667 46.7847 3.39234 48.5293 3.07517 47.4191C2.91658 46.7847 2.44083 48.688 2.28225 48.0535V48.3707C1.96508 48.3707 2.28225 48.0535 1.96508 47.8949C1.8065 47.8949 1.96509 48.3707 1.64792 48.2121C1.64792 46.9433 0.855 48.3707 0.855 47.1019C1.01358 47.1019 0.537831 46.6261 1.01358 46.3089C0.854998 46.1503 0.379245 46.1502 0.379245 46.7847C0.379245 47.4191 0.0620772 47.8949 0.379245 48.3707L0.537832 47.8949C0.696416 48.3707 0.537829 48.0535 0.696413 48.5293C1.17216 48.6879 1.17217 49.3224 1.33075 49.481C1.64792 49.0052 1.8065 49.3224 1.96508 49.3224V49.6396C1.96508 50.1154 2.44083 48.688 2.28225 49.481C3.23375 49.3224 4.18525 49.481 5.13676 49.481C5.29534 49.1638 5.92968 49.481 5.77109 48.8466C5.92968 49.6396 6.72259 49.7982 7.03976 49.7982V49.9568C7.51551 50.9084 7.6741 49.0052 8.14985 50.274C8.14985 49.481 9.10135 50.4326 9.25994 49.481C9.25994 49.6396 9.41852 49.7982 9.41852 49.9568C10.37 49.9568 11.3215 50.1154 12.1144 50.1154C12.7488 49.3224 13.7003 50.274 14.176 49.1638C14.6518 49.3224 15.4447 49.6396 16.079 49.1638V49.3224C16.7134 49.1638 17.6649 49.0051 17.982 48.2121C18.2992 49.1637 18.6164 48.8465 18.9335 49.1638C19.4093 48.6879 20.3608 48.5294 20.9951 48.0535C21.1537 48.5294 21.6295 47.7363 21.788 48.3707C23.5325 46.7847 26.0698 46.4675 28.4486 46.7847C28.6071 46.3088 28.7657 45.5158 28.9243 45.04V45.1986C29.2415 45.04 29.8758 45.5158 30.193 45.1986C30.193 45.3572 30.193 45.3572 30.193 45.3572C30.5101 45.04 31.1445 45.6744 31.3031 45.04V45.1986L31.4616 44.8814C31.4616 45.04 31.6202 45.3572 31.4616 45.3572C34.7919 44.4056 37.6464 42.1851 40.9767 40.9163V41.0749L41.4524 40.4404C41.4524 40.599 41.4524 40.5991 41.4524 40.5991C42.4039 40.5991 42.8797 39.6474 43.8312 39.3302C43.8312 39.4888 43.8312 39.6474 43.9898 39.6474C44.3069 38.8544 45.2584 39.9646 44.9413 38.6958L45.0999 39.013C46.5271 37.9028 48.1129 37.1097 49.6988 36.4753C50.4917 34.8892 52.3947 35.0479 53.3462 33.779V33.9376C54.7735 32.5101 57.1522 32.6688 58.8966 32.0344C59.6895 31.8758 60.1653 31.5586 61.1168 31.3999V31.7171C61.7511 31.0827 62.5441 31.2413 63.337 31.3999C64.1299 31.5586 64.7642 31.7171 65.5571 31.0827L65.3986 31.3999C65.5571 30.7655 66.3501 31.5586 66.1915 30.6069L66.5087 30.9241C67.4602 29.6553 68.2531 31.5585 69.5217 30.7655L69.3632 30.9241C69.6803 30.7655 70.1561 30.6069 70.3147 30.9241C70.3147 30.9241 70.3147 31.0827 70.1561 31.0827C71.1076 32.0343 72.2177 31.2413 73.3277 31.3999L73.1692 31.8757C73.8035 31.3999 74.5964 32.193 75.3893 32.0344L75.2308 32.193L75.7065 32.0344L75.5479 32.5102C76.4994 32.986 77.4509 32.986 78.2438 33.1446Z" fill="#45C7F0"/>
<path d="M1.48905 49.4811C1.33047 49.4811 1.33047 49.3225 1.48905 49.4811Z" fill="#45C7F0"/>
<path d="M99.0183 29.8139V29.6553L98.7012 29.8139H99.0183Z" fill="#45C7F0"/>
<path d="M98.0668 29.9722L97.9082 30.1308C98.2254 29.9722 98.5425 29.8136 98.8597 29.655C99.0183 29.1792 97.9082 30.2894 98.0668 29.9722Z" fill="#45C7F0"/>
<path d="M98.0662 29.8141C98.0662 29.4969 97.749 29.9727 97.749 29.9727C97.9076 29.8141 97.749 30.2899 98.0662 29.8141Z" fill="#45C7F0"/>
<path d="M87.2829 25.6901L87.1244 26.0073C87.7587 25.5315 87.9173 26.3245 88.5516 26.1659V26.3245C89.5031 26.8003 90.7718 26.6417 92.0405 27.1175L91.8819 27.2762C92.0405 27.1176 92.199 26.9589 92.199 27.1175L92.0405 27.2762C91.8819 27.9106 92.8334 27.2761 92.6748 27.752C92.8334 27.752 92.992 27.5934 92.992 27.4348C93.4677 27.5934 93.7849 27.9106 94.2606 28.0692C94.4192 28.2278 94.7364 28.2278 94.895 28.3864C95.0535 28.545 95.3707 28.545 95.5293 28.545C95.5293 28.7036 95.3707 28.7036 95.2121 28.8622C96.3222 28.545 96.798 29.1794 97.4323 29.8139C97.5909 29.6553 97.5909 29.4966 97.7495 29.338C97.7495 28.8622 96.9566 29.4967 96.9566 29.0208L97.1151 28.8622C97.1151 28.7036 96.798 29.338 96.798 29.0208C96.798 28.8622 96.9566 28.7036 96.9566 28.7036C96.6394 28.545 96.4808 28.2278 95.8465 28.545C96.1636 28.0692 95.5293 28.3864 95.8465 27.9106C95.6879 28.0692 95.6879 27.9106 95.3707 28.2278C94.5778 27.1176 93.1505 26.6417 91.8819 26.0073C90.7718 26.6417 90.6132 25.2143 89.8203 25.2143C89.8203 25.2143 89.8203 25.2143 89.8203 25.0557C89.5031 25.2143 89.186 25.2143 88.8688 24.8971L88.5516 25.2143C87.1244 23.7868 85.2214 23.9454 83.4769 23.311C82.5254 22.9938 81.5739 22.6766 80.6224 22.6766C79.6709 22.518 78.878 22.6766 77.7679 23.311C77.7679 23.1524 77.7679 23.1524 77.7679 23.1524C77.1336 23.311 76.6578 22.9938 76.1821 23.1524V22.9938C75.5478 23.4696 74.9134 23.311 74.1205 23.311C73.4862 23.311 72.6932 23.311 72.2175 23.7868C70.6317 23.6282 69.0458 23.7868 67.46 23.6282V23.4696C66.0327 23.4696 65.2398 21.8836 64.4469 21.5663C64.4469 21.2491 64.1297 21.0905 63.9711 20.7733C63.8126 20.4561 63.654 20.1389 63.654 19.8217C63.654 19.1873 63.8126 18.5528 64.4469 18.3942C65.0812 18.3942 65.2398 17.9184 65.3984 17.4426C65.557 16.9668 65.8742 16.3324 66.5085 16.6496C67.6186 16.8082 68.4115 16.6496 68.8872 16.0152C69.5216 15.3807 69.6802 14.4291 69.9973 13.6361C70.7902 13.3189 71.1074 12.6844 71.5832 12.05C72.0589 11.4156 72.3761 10.9398 73.3276 10.7812C73.169 9.82955 74.9134 10.3053 75.2306 9.51231L75.072 9.35369C75.8649 9.5123 74.4377 8.24346 75.5478 8.71928C76.1821 8.87789 74.5963 7.60904 75.2306 7.92625L75.072 7.76764C75.072 7.60903 75.3892 7.92625 75.5478 7.92625C75.5478 7.92625 75.072 7.60907 75.2306 7.60907C76.3407 8.24349 75.2306 7.13322 76.3407 7.76764C76.3407 7.92624 76.8164 7.92627 76.975 8.24348C77.1336 8.24348 77.2922 7.92624 76.6578 7.76764C76.1821 7.45043 75.7063 7.13322 75.2306 6.97461L75.5478 7.29184C75.072 7.13323 75.3892 7.29183 75.072 7.13322C74.9134 7.29183 74.2791 6.97461 73.9619 6.97461C74.4377 7.29182 73.9619 7.29184 73.9619 7.29184L73.8033 7.13322C73.3276 6.97462 74.5963 7.92626 73.8033 7.29184C73.8033 7.76766 73.4862 8.24345 73.169 8.56067C73.3276 8.87788 72.8518 8.87792 73.4862 9.19513C72.8518 8.87792 72.5347 9.03652 72.3761 9.19513C72.3761 9.19513 72.2175 9.03651 72.3761 9.03651C71.4246 8.56069 72.8518 9.82955 71.7417 9.19513C72.3761 9.82955 71.266 9.35369 71.9003 10.1467C71.7417 9.98812 71.5832 9.98815 71.5832 9.82954C71.266 10.1468 70.7902 10.3053 70.4731 10.464C70.7902 11.257 69.6802 10.7811 70.1559 11.7328C69.8387 11.7328 69.363 11.7328 69.363 12.2086V12.05C69.2044 12.3672 68.8872 12.6844 69.0458 13.3188C68.4115 12.6844 68.4115 12.843 68.0943 12.6844C68.0943 13.1602 67.7771 13.3189 67.7771 13.9533C67.46 13.6361 67.6186 14.2705 67.3014 13.7947C67.3014 14.5877 66.8256 15.0635 66.1913 15.3807C65.557 15.6979 64.9226 15.8565 63.9711 15.8565C64.1297 16.1737 64.4469 16.9668 64.6055 17.4426L64.4469 17.284C64.2883 17.4426 63.8126 17.284 63.654 17.6012C63.654 17.6012 63.4954 17.6012 63.4954 17.4426C63.4954 17.7598 62.7025 17.6012 63.0196 18.077L62.8611 17.9184L63.0196 18.2356C62.8611 18.077 62.5439 17.9184 62.7025 17.9184C62.5439 18.077 62.3853 18.2356 62.2267 18.5529C62.0681 18.7115 61.9096 19.1873 61.9096 19.5045C61.751 19.8217 61.751 20.1389 61.751 20.4561C61.751 20.7733 61.751 21.0905 61.9096 21.4077C62.0681 22.0422 62.5439 22.518 62.8611 22.8352C63.3368 23.1524 63.8126 23.4696 64.2883 23.6282C64.7641 23.7868 65.0812 23.9455 65.3984 24.2627L65.2398 24.4212C65.3984 24.4212 65.557 24.2627 65.7156 24.2627C65.7156 24.4213 65.557 24.4212 65.557 24.4212C65.8741 24.897 66.6671 24.5799 66.9842 24.7385C66.9842 24.8971 66.8256 25.0557 66.8256 25.2143C67.3014 24.7384 67.3014 26.1659 67.7771 25.0557C67.7771 25.0557 67.7772 25.3729 67.6186 25.5315C68.7287 25.3729 69.6802 25.5315 70.7902 25.6901C71.5832 24.5799 72.5347 25.5315 73.3276 24.7385V24.8971C74.4377 24.104 75.3892 25.0557 76.4993 24.8971C76.975 25.0557 77.2922 24.7385 77.7679 24.7385V25.0557C78.5608 24.1041 79.3538 26.0073 80.1467 25.0557V25.3729C80.3053 24.7385 80.6224 25.5315 80.6224 24.5798L80.781 24.8971C81.4154 23.6282 81.7325 25.5315 82.3669 24.7385V24.8971C82.5254 24.7385 82.8426 24.5799 82.8426 24.8971V25.0557C83.3184 26.0073 83.9527 25.0557 84.587 25.2143L84.4284 25.6901C84.7456 25.2143 85.2214 25.8487 85.5385 25.6901V25.8487L85.8557 25.5315L85.6971 26.0073C86.3314 25.8487 86.8072 25.5315 87.2829 25.6901Z" fill="#45C7F0"/>
<path d="M100.128 54.2396H100.287L100.445 53.9224L100.128 54.2396Z" fill="#45C7F0"/>
<path d="M101.08 50.433V50.5916C101.556 50.433 102.032 50.433 102.507 50.5916C102.507 50.2744 102.19 50.2744 101.873 50.2744C101.397 50.433 101.08 50.5916 101.08 50.433Z" fill="#45C7F0"/>
<path d="M100.921 50.1157C100.763 49.7985 100.446 50.1157 100.287 50.2743C100.446 49.9571 100.763 50.5915 100.921 50.1157Z" fill="#45C7F0"/>
<path d="M81.0981 42.8198L80.9395 43.137C81.891 42.8198 82.5253 43.7714 83.4768 43.7714L83.3182 43.93C85.3798 44.7231 87.4414 44.723 89.6616 45.1989L89.503 45.3575C89.6616 45.3575 89.8202 45.0402 89.9787 45.1989C89.9787 45.3575 89.8202 45.3575 89.8202 45.3575C89.9787 46.1505 91.2474 45.5161 91.2474 46.1505C91.406 46.1505 91.5646 45.9919 91.5646 45.8333C92.0403 45.9919 92.3575 46.1505 92.8333 46.4677C93.309 46.7849 93.6262 46.9435 93.9433 47.1021C94.7363 47.4194 95.5292 47.7366 96.4807 47.8952C96.4807 48.0538 96.4807 48.2124 96.3221 48.371C97.2736 48.2124 98.0665 48.5296 98.7008 49.0054C99.1766 49.3226 99.3352 49.6398 99.6523 49.7984C99.8109 49.957 99.8109 49.957 99.9695 50.1156C100.128 50.1156 100.128 50.2743 100.287 50.2743C100.445 50.1156 100.287 49.957 100.445 49.7984C100.287 49.4812 100.128 49.6398 99.9695 49.7984C99.8109 49.7984 99.6523 49.9571 99.6523 49.6398L99.8109 49.4812C99.6524 49.164 99.3352 49.957 99.3352 49.4812C99.3352 49.164 99.4938 49.3226 99.4938 49.164C98.8594 48.6882 98.2251 48.0537 97.2736 48.2123C97.4322 47.5779 96.6393 47.8952 96.6393 47.2608C96.3221 47.4194 96.3221 47.2607 96.0049 47.5779C95.5292 47.2607 95.0534 46.9435 94.5777 46.7849L93.9433 46.4677L93.1504 45.9919C91.8817 45.3575 90.6131 44.8816 89.503 44.4058C88.0757 45.0402 87.1242 43.4542 85.697 43.2956C85.697 43.2956 85.697 43.2956 85.697 43.137C85.2212 43.2956 84.5869 43.137 84.1112 42.9784L83.4768 43.2956C80.7809 41.3923 77.4506 40.9165 74.1204 40.1235C72.2174 39.8063 70.3144 39.489 68.5699 39.6477C66.8255 39.8063 65.0811 40.1235 63.4953 41.2337C63.4953 41.0751 63.4953 41.0751 63.4953 41.0751C62.5438 41.3923 61.4337 41.2337 60.6408 41.7096V41.5509C58.4206 42.9784 55.7247 42.6612 53.6631 44.4058C50.9672 45.1989 47.9541 46.4677 45.2581 47.8952V47.7366C43.1966 49.164 40.6592 49.0054 38.5976 50.4329C37.329 50.7501 36.3775 51.5431 35.426 52.3361C34.3159 53.1291 33.2058 53.7636 31.9371 53.9222C30.9856 53.7636 30.3513 54.2394 29.5584 54.7152C28.7654 55.191 27.9725 55.6668 27.1796 55.3496C25.5938 54.8738 24.1665 55.0324 22.7393 55.3496C21.312 55.6668 19.8848 56.3012 18.4575 56.9357C15.7616 56.4598 12.9071 58.0459 10.3697 56.7771C9.10107 57.4115 7.8324 55.6668 6.40514 55.6668V55.9841C6.08798 55.191 5.13647 56.9357 4.97789 55.6668C4.8193 55.0324 4.18497 56.9357 4.18497 56.3012V56.6185C3.8678 56.6185 4.18497 56.3012 4.02639 56.1426C3.8678 56.1426 3.8678 56.6185 3.70922 56.4599C3.70922 55.191 2.9163 56.6185 3.07488 55.3496C3.23347 55.3496 2.75772 54.8738 3.23347 54.5566C3.07489 54.398 2.59913 54.398 2.59913 55.0324C2.44055 55.6668 2.28196 56.1427 2.59913 56.6185L2.75771 56.1426C2.75771 56.6185 2.75772 56.3013 2.9163 56.7771C3.39205 56.9357 3.39205 57.5701 3.55063 57.7287C3.8678 57.2529 4.02639 57.5701 4.18497 57.7287V58.0459C4.18497 58.5217 4.81931 57.0943 4.50214 57.8873C5.29506 57.7287 6.40514 57.8873 7.35664 58.0459C7.51523 57.7287 8.14956 58.2045 7.99098 57.5701C8.14956 58.3632 8.94248 58.6803 9.10106 58.5217V58.6803C9.57681 59.632 9.89398 57.8873 10.2111 58.9976C10.3697 58.2045 11.1626 59.3148 11.4798 58.3632C11.4798 58.5218 11.4798 58.6803 11.4798 58.8389C12.4313 58.8389 13.3828 59.1562 14.1757 59.1562C14.8101 58.3632 15.7616 59.4734 16.2373 58.3632C16.7131 58.5218 17.506 58.9975 18.1403 58.5217V58.6803C18.9333 58.5217 19.7262 58.5217 20.2019 57.8873C20.5191 58.8389 20.8363 58.6803 21.1534 58.8389C21.6292 58.3631 22.5807 58.3631 23.3736 57.8873C23.5322 58.3631 24.0079 57.5701 24.1665 58.2045C26.0695 56.6185 28.6069 56.6185 30.9856 56.9357C31.1442 56.4598 31.3028 55.6669 31.4614 55.191V55.3496C31.7785 55.191 32.4129 55.6668 32.73 55.3496C32.73 55.5082 32.73 55.5082 32.73 55.5082C33.0472 55.191 33.6815 55.6668 33.8401 55.0324L33.9987 55.191L34.1573 54.8738C34.1573 55.0324 34.3159 55.3496 34.1573 55.3496C35.9017 54.8738 37.4875 53.9222 38.9148 52.9705C40.3421 52.0189 41.7693 51.0673 43.5137 50.4329V50.5914L43.9895 49.957C43.9895 50.1156 43.9895 50.1156 43.9895 50.1156C44.941 50.1156 45.4167 49.164 46.3682 49.0054C46.3682 49.164 46.3682 49.3226 46.5268 49.3226C46.844 48.5296 47.7955 49.6398 47.4783 48.371L47.6369 48.6882C49.0642 47.7366 50.65 47.1021 52.3944 46.6263C53.3459 45.1988 55.2489 45.5161 56.359 44.2472V44.4058C57.9448 43.137 60.165 43.4542 62.2266 42.8198C63.0195 42.8198 63.4953 42.344 64.4468 42.1854V42.5026C65.0811 41.8682 65.874 42.0267 66.6669 42.0267C67.4599 42.1853 68.2528 42.1854 68.8871 41.5509V41.8681C69.0457 41.2337 69.8386 42.0267 69.68 41.0751L69.9972 41.3923C70.473 40.7579 70.9487 40.7579 71.4245 41.0751C71.9002 41.2337 72.376 41.5509 73.0103 41.0751L72.8517 41.2337C73.1689 41.0751 73.6446 40.9165 73.8032 41.2337C73.8032 41.2337 73.8032 41.3923 73.6446 41.3923C74.5961 42.344 75.7062 41.5509 76.8163 41.8681L76.6577 42.344C77.292 42.0268 78.085 42.6612 78.8779 42.6612L78.7193 42.8198L79.1951 42.6612L79.0365 42.9784C79.3536 42.8198 80.1466 42.6612 81.0981 42.8198Z" fill="#45C7F0"/>
<path d="M91.0893 71.686H90.9307L91.0893 72.0032V71.686Z" fill="#45C7F0"/>
<path d="M90.7717 72.9547L90.9303 73.1133C90.9303 72.7961 90.7717 72.3202 90.7717 72.003C90.1374 71.8444 91.2475 73.1133 90.7717 72.9547Z" fill="#45C7F0"/>
<path d="M90.6133 73.1133C90.2961 73.1133 90.4547 73.5891 90.4547 73.7477C90.2961 73.2719 90.9304 73.4305 90.6133 73.1133Z" fill="#45C7F0"/>
<path d="M67.46 80.0921C67.6185 79.9335 67.46 79.9335 67.46 80.0921Z" fill="#45C7F0"/>
<path d="M60.9585 81.3608L60.7999 81.678C62.0685 81.2022 63.4958 81.8366 64.7645 81.678L64.6059 81.8366C66.1917 81.9953 67.9361 81.8366 69.522 81.5194C71.1078 81.2022 72.6936 80.7264 74.2795 80.2506C74.2795 80.2506 74.2795 80.4092 74.1209 80.4092C74.2795 80.2506 74.4381 79.9334 74.5966 79.9334V80.092C75.3896 80.5678 76.4997 79.299 76.9754 79.6162C77.134 79.4576 77.134 79.2989 76.9754 79.1403C78.2441 78.8231 79.5127 78.3473 80.6228 77.8715C81.8915 77.3957 83.0016 76.7613 84.1117 76.1268C84.2703 76.1268 84.2702 76.2855 84.4288 76.4441C85.2217 75.4924 86.3318 75.0166 87.4419 74.5408L88.2348 74.2236C88.3934 74.065 88.7106 74.065 88.8692 73.9064C89.3449 73.7478 89.8207 73.4306 90.1378 73.2719C89.9793 72.9547 89.8207 73.1133 89.8207 72.7961C89.1863 72.9547 89.1863 74.065 88.552 73.9064V73.5891C88.0763 73.5891 88.7106 74.2236 88.2348 74.065C88.0763 73.9064 88.0763 73.7477 88.0763 73.7477C87.9177 73.7477 87.9177 73.9064 87.7591 73.9064C87.6005 73.9064 87.6005 73.9064 87.4419 74.065C87.1248 74.2236 86.9662 74.2236 86.649 74.3822C86.1733 74.5408 85.6975 74.858 85.3803 75.3338C84.9046 74.858 84.2702 75.8096 83.7945 75.3338C83.6359 75.651 83.3187 75.651 83.4773 76.1268C82.6844 76.444 81.7329 76.6026 80.94 76.9199L79.6713 77.3957L78.4027 77.8715C76.6582 78.3473 74.9138 78.9817 73.1694 79.2989C72.3765 79.9334 71.425 80.092 70.4735 80.092C69.522 80.092 68.5705 79.9334 67.4604 80.092C67.4604 80.092 67.4604 80.092 67.4604 79.9334C66.826 80.2506 65.8745 80.2506 65.0816 80.092L64.4473 80.5678C59.6898 79.4576 54.9323 79.4576 50.1748 78.1887C47.4788 77.5543 44.9415 76.9199 42.4042 76.2854C39.8668 75.8096 37.3295 75.4924 34.475 75.651C34.475 75.4924 34.475 75.4924 34.6336 75.4924C33.0477 75.3338 31.7791 74.6994 30.3518 74.5408V74.3822C28.4488 74.3822 26.7044 73.7477 25.1185 72.9547C24.6428 72.7961 24.3256 72.6375 24.0085 72.3203C23.6913 72.1617 23.2155 71.8445 23.057 71.6859C22.5812 71.3687 22.1054 70.5756 22.264 69.7826C22.7398 68.9896 23.6913 68.6724 24.8014 68.3552C25.9115 68.038 26.863 67.7207 27.973 67.4035C30.1932 66.7691 32.4134 66.1347 34.6336 65.183V65.3417C37.9638 63.7556 41.6112 63.4384 44.7829 61.8523C46.5273 61.3765 48.2718 60.4249 50.0162 59.6319C51.7606 58.8388 53.505 57.8872 55.408 57.57C56.6767 57.7286 57.7868 56.9355 59.0554 56.3011C60.1655 55.6667 61.4342 55.0323 62.7029 55.1909C67.4604 55.8253 71.425 54.0807 75.8653 52.8118C77.9269 52.9704 79.9885 52.6532 82.0501 52.6532C84.1117 52.6532 86.1733 52.6532 88.0763 53.4462C89.9793 52.9704 91.8823 54.8737 94.1024 54.8737V54.5565C94.7368 55.5081 96.0054 53.7635 96.164 55.0323H96.0054C96.164 55.6667 97.2741 53.922 97.2741 54.7151L97.4327 54.3979C97.9085 54.3979 97.4327 54.7151 97.7499 55.0323C97.9084 55.0323 97.9085 54.5565 98.2256 54.8737C97.9085 55.9839 99.4943 55.0323 98.8599 56.3011C98.7014 56.1425 99.0185 56.9355 98.3842 56.9355C98.5428 57.0941 99.1771 57.4114 99.3357 56.9355C99.6529 56.4597 100.287 56.1425 99.97 55.5081L99.6529 55.8253C99.6529 55.3495 99.6529 55.5081 99.8115 55.1909C99.1771 54.8737 99.3357 54.2392 99.0185 53.7634C98.5428 54.0806 98.2256 53.6048 97.9084 53.4462V53.129C97.9084 52.6532 96.7984 53.922 97.2741 53.129C95.8469 52.9704 94.261 52.6532 92.8338 52.4946C92.5166 52.8118 91.7237 52.336 91.8823 52.9704C91.5651 52.1774 90.6136 51.8602 90.1378 51.8602C90.1378 51.8602 90.1379 51.7016 90.2964 51.7016C89.6621 50.5913 89.1863 52.4946 88.7106 51.2258C88.552 52.0188 87.4419 50.7499 86.8076 51.7016C86.8076 51.543 86.649 51.3844 86.8076 51.2258C85.5389 51.0672 83.9531 50.5913 82.843 50.5913C81.8915 51.2257 80.4642 50.1155 79.5127 51.2258C78.8784 51.0672 77.6097 50.5913 76.6582 51.0672L76.8168 50.9085C75.7067 51.0671 74.2795 51.2258 73.6451 51.8602C73.1694 50.9085 72.6936 51.2258 72.2179 50.9085C71.5836 51.3844 69.9977 51.543 69.0462 52.0188C68.7291 51.543 68.0947 52.336 67.9361 51.7016C66.5089 52.4946 64.7645 53.129 63.02 53.4462C61.2756 53.7635 59.3726 53.922 57.6282 54.0807C57.311 54.5565 57.1524 55.5081 56.8353 55.9839C56.8353 55.9839 56.6767 55.8253 56.8353 55.8253C56.3595 56.1425 55.5666 55.6667 55.0909 55.9839C55.0909 55.8253 55.0909 55.8253 55.0909 55.8253C54.6151 56.3011 53.8222 55.6667 53.3464 56.4597L53.1879 56.3011L52.8707 56.6184C52.8707 56.4597 52.7121 56.1425 53.0293 56.1425C51.7606 56.4597 50.6505 56.9356 49.3818 57.4114C48.1132 57.8872 46.8445 58.363 45.7344 58.9974C43.3557 60.1077 40.9769 61.3765 38.4396 62.1696L38.5981 61.8523L37.8052 62.4867C37.8052 62.3281 37.8052 62.3282 37.8052 62.3282C36.5366 62.4868 35.4265 63.4384 34.1578 63.7556C34.1578 63.597 34.3164 63.4384 33.9992 63.2798C33.3649 64.0728 32.4134 62.9626 32.2548 64.2314C32.2548 64.2314 32.0962 63.9142 32.0962 63.7556C29.7175 64.8658 27.1801 65.3417 24.4842 66.1347C24.167 66.2933 24.0085 66.6105 23.8499 66.7691C23.5327 66.9277 23.3741 67.0863 23.057 67.2449C22.4226 67.5621 21.7883 68.038 21.4711 68.6724C21.1539 69.3068 20.9954 70.0998 21.3125 70.7342C21.6297 71.3687 22.264 72.0031 22.8984 72.1617L22.7398 72.3203C24.167 72.9547 25.5943 73.4306 27.0215 74.065C28.4488 74.6994 29.876 75.3338 31.4619 75.651C32.7305 75.9682 33.5235 75.9682 34.7921 76.2854V76.6027C37.1709 75.9683 39.0739 78.3473 41.4527 77.5543L41.2941 77.8715C41.7698 77.3957 42.5627 78.3473 42.5627 77.3957L42.8799 77.7129C44.6243 76.7613 45.5758 78.8231 47.4788 78.3473L47.3202 78.5059C47.796 78.3473 48.4303 78.3473 48.7475 78.6645C48.7475 78.6645 48.7475 78.8231 48.5889 78.8231C50.0162 79.9334 51.9192 79.299 53.505 79.6162L53.1879 79.9334C53.9808 79.6161 55.408 80.2506 56.5181 80.092L56.3595 80.2506L56.9939 80.092V80.5678C58.2625 81.5195 59.5312 81.2022 60.9585 81.3608Z" fill="#45C7F0"/>
<path d="M98.8604 53.9219C98.8604 54.0805 98.8604 54.0805 98.8604 53.9219C99.0189 54.0805 98.8604 54.0805 98.8604 53.9219Z" fill="#45C7F0"/>
<path d="M96.6392 65.8178L96.7978 65.6592L95.6877 65.8178C95.3705 66.135 96.9564 65.5006 96.6392 65.8178Z" fill="#45C7F0"/>
<path d="M96.6393 65.8178C96.4808 65.9764 96.9565 65.8178 97.1151 65.8178C96.7979 65.9764 97.1151 65.6592 96.6393 65.8178Z" fill="#45C7F0"/>
<path d="M77.6093 69.6242V69.9415C78.4022 69.1484 79.3537 69.7829 80.3052 69.3071V69.4657C82.5254 69.3071 84.5869 68.514 86.6485 67.8796V68.0382C86.8071 67.8796 86.8071 67.721 86.9657 67.721V67.8796C87.4414 68.3554 88.2344 67.2452 88.7101 67.721C88.8687 67.5624 88.8687 67.4038 88.7101 67.2452C90.296 66.7693 92.199 66.4522 93.7848 65.5005C93.9434 65.5005 93.9434 65.6591 93.9434 65.9763C94.5777 65.3419 95.2121 65.0247 96.1636 64.7075C96.3221 64.7075 96.6393 64.5489 96.7979 64.5489H97.1151H97.4322H97.5908V64.7075C97.5908 64.8661 97.7494 65.0247 97.7494 65.0247C97.7494 65.0247 97.7494 65.1833 97.908 65.1833V65.3419C97.908 65.3419 97.908 65.3419 98.0666 65.5005C98.0666 65.5005 97.908 65.5005 97.5908 65.5005C97.4322 65.5005 97.5908 65.5005 97.7494 65.5005C97.7494 65.5005 97.7494 65.5005 97.5908 65.5005C98.0666 65.3419 98.2251 65.5005 98.0666 65.5005C97.908 65.5005 97.908 65.3419 97.7494 65.1833C97.7494 65.0247 97.7494 65.0247 97.5908 64.8661C97.5908 64.7075 97.4322 64.5489 97.4322 64.3903V64.2317C97.4322 64.2317 97.2736 64.2317 97.1151 64.073V63.7559C96.7979 63.5973 97.1151 64.3903 96.7979 64.073C96.6393 63.9144 96.7979 63.7559 96.6393 63.7559C95.8464 64.0731 95.0535 63.9145 94.5777 64.7075C94.2605 64.2317 93.7848 64.8661 93.4676 64.3903C93.3091 64.7075 93.1505 64.5489 93.1505 65.0247C90.7717 65.1833 88.3929 66.1349 86.0142 66.4521C85.0627 67.721 83.4769 66.6108 82.0496 67.0866C82.0496 67.0866 82.0496 67.0866 82.0496 66.928C81.5739 67.2452 80.9395 67.4038 80.4638 67.4038L79.988 67.8796C76.6578 67.4038 73.4861 68.3554 70.1558 68.1968C66.3498 68.1968 63.0196 67.721 59.5307 69.3071C59.5307 69.1485 59.5307 69.1484 59.5307 69.1484C58.4206 69.4657 57.4691 69.1485 56.5176 69.3071V69.1484C56.2005 69.3071 56.0419 69.3071 55.8833 69.4657C55.7247 69.4657 55.4075 69.6242 55.249 69.6242C54.7732 69.6242 54.2975 69.6242 53.9803 69.6242C53.5045 69.6242 53.1874 69.6242 52.7116 69.6242C52.2359 69.6242 51.443 69.7829 50.1743 69.7829C49.6985 69.6243 49.0642 69.4657 48.5884 69.1484C48.4299 69.1484 48.4299 68.9898 48.2713 68.9898C48.2713 68.9898 48.1127 68.9898 48.1127 68.8312V68.6726C48.2713 68.514 48.4299 68.3554 48.5884 68.1968C49.0642 68.0382 49.3814 67.8796 49.8571 67.721C50.65 67.4038 51.443 66.928 52.3945 66.6107L52.7116 66.7694C53.0288 66.6108 53.6631 66.4522 54.1389 66.2936C54.7732 66.135 55.249 66.1349 55.8833 66.1349C56.5176 66.1349 57.152 65.9763 57.7863 65.8177C58.4206 65.6591 59.055 65.5005 59.5307 65.1833C60.7994 65.0247 61.9095 64.3903 63.0196 63.7559C64.1296 63.1214 65.3983 62.6456 66.667 62.6456C68.4114 63.28 69.9972 60.7424 71.7417 61.5354C74.9133 62.6456 77.6093 61.2182 80.7809 60.2665C83.6354 60.9009 86.3314 59.4735 89.1859 60.5838C90.4545 59.7907 91.8818 61.5354 93.309 61.3768V61.0595C93.7848 61.8526 94.5777 60.1079 94.7363 61.2182C94.8949 61.8526 95.5292 59.7907 95.5292 60.5838V60.2665C95.8464 60.2665 95.5292 60.5838 95.8464 60.7424C96.005 60.7424 95.8464 60.2665 96.1636 60.4251C96.1636 61.694 96.9565 60.1079 96.9565 61.5354C96.7979 61.5354 97.2736 62.0112 96.7979 62.3284C96.9565 62.487 97.5908 62.3284 97.4322 61.8526C97.4322 61.2182 97.5908 60.7423 97.2736 60.2665V60.7424C97.115 60.2665 97.1151 60.5837 97.1151 60.2665C96.6393 60.2665 96.6393 59.6321 96.3221 59.3149C96.1635 59.7907 95.8464 59.4735 95.6878 59.4735V59.1563C95.6878 58.6805 95.2121 60.1079 95.3706 59.3149C94.5777 59.4735 93.4676 59.3149 92.5161 59.3149C92.3575 59.6321 91.7232 59.3149 91.8818 59.9493C91.7232 59.1563 90.9303 58.9977 90.6131 58.9977V58.8391C90.1374 57.8874 89.9788 59.7907 89.503 58.5218C89.3445 59.3149 88.5515 58.2047 88.2344 59.1563C88.2344 58.9977 88.2344 58.8391 88.2344 58.6805C87.2829 58.6805 86.3314 58.3633 85.5385 58.3633C84.9041 59.1563 83.9526 58.0461 83.3183 58.9977C82.8425 58.8391 82.0496 58.3633 81.4153 58.6805V58.5218C80.6223 58.5218 79.6709 58.6805 79.1951 59.3149C78.8779 58.3632 78.5608 58.5219 78.2436 58.3633C77.7678 58.8391 76.8163 58.8391 76.0234 59.3149C75.8648 58.8391 75.3891 59.6321 75.2305 58.9977C73.1689 60.4251 70.6316 60.4252 68.2528 59.9493C68.0942 60.4252 67.7771 61.2181 67.6185 61.694V61.5354C67.3013 61.694 66.667 61.2182 66.3498 61.3768C66.3498 61.2182 66.3498 61.2182 66.3498 61.2182C66.0326 61.5354 65.3983 60.901 65.0812 61.5354V61.3768L64.9226 61.694C64.9226 61.5354 64.764 61.2182 64.9226 61.2182C63.1781 61.5354 61.4337 62.1698 59.6893 62.9628C58.8964 63.4387 58.1035 63.7558 57.3105 64.2317C56.9934 64.3903 56.5176 64.5489 56.2005 64.7075C55.7247 64.8661 55.4075 64.8661 54.7732 65.0247L54.9318 64.8661C54.6146 65.0247 54.2975 65.1833 54.1389 65.3419C54.1389 65.1833 54.1389 65.1833 54.1389 65.1833C53.346 65.1833 52.7116 65.3419 52.2359 65.6591C51.7601 65.8177 51.443 66.135 50.8086 66.2936C50.65 66.2936 50.4914 66.1349 50.1743 65.9763C50.1743 66.2935 49.54 66.2936 49.0642 66.2936C48.5885 66.2936 48.2713 66.4522 49.0642 66.7694C48.9056 66.7694 48.4299 66.6107 48.2713 66.6107C47.4784 67.0866 47.1612 67.721 46.5269 68.0382C46.2097 68.1968 46.0511 68.3554 45.7339 68.6726C45.5754 68.8313 45.4168 68.9898 45.2582 69.1484C45.2582 69.3071 45.0996 69.3071 45.0996 69.4657V69.7829C45.2582 69.7829 45.2582 69.9415 45.4168 69.9415C46.6854 70.2587 47.3198 70.5759 47.9541 70.7345C48.5884 70.8931 49.3814 71.0517 50.8086 70.8931L50.4914 71.0517C52.2359 70.8931 53.1874 70.8931 54.1389 71.0517C55.0904 71.2103 56.5176 71.2103 57.4691 71.2103C58.262 71.2103 58.8964 70.8931 59.8479 70.8931V71.2103C61.2751 70.1001 63.0196 72.0033 64.4468 70.7345L64.2882 71.0517C64.4468 70.4173 65.2397 71.2103 65.0812 70.2587L65.3983 70.5759C66.3498 69.1484 67.3013 71.0517 68.57 70.1001V70.2587C68.8872 70.1001 69.2043 69.9415 69.5215 70.1001C69.5215 70.1001 69.5215 70.2587 69.3629 70.2587C70.473 71.0517 71.5831 69.9415 72.6932 69.9415L72.5346 70.4173C73.0103 69.9415 74.1204 70.2587 74.7548 69.9415V70.1001L75.0719 69.7829V70.2587C76.0234 70.2587 76.8163 69.7829 77.6093 69.6242Z" fill="#45C7F0"/>
<path d="M83.3181 82.154C83.3181 82.154 83.3181 82.3126 83.4767 82.3126C83.4767 81.9953 83.4767 81.6782 83.4767 81.2023C83.0009 80.8851 83.4767 82.4712 83.3181 82.154Z" fill="#45C7F0"/>
<path d="M83.159 82.154C83.0004 81.9954 83.0004 82.4712 83.159 82.6298C83.0004 82.3126 83.3176 82.6298 83.159 82.154Z" fill="#45C7F0"/>
<path d="M68.094 88.6568V88.9741C68.5698 88.181 69.5213 88.6569 69.997 88.181V88.3397C71.7414 88.0224 73.0101 86.9122 74.4374 85.9606V86.1192C74.4374 85.9606 74.4373 85.6433 74.5959 85.6433V85.802C75.0717 86.2778 75.3888 85.0089 75.8646 85.4847C75.8646 85.3261 75.8646 85.1675 75.706 85.0089C76.3403 84.6917 76.9747 84.3745 77.609 84.0573C78.2434 83.7401 78.8777 83.4229 79.512 82.9471C79.6706 82.9471 79.6706 83.1057 79.6706 83.4229C80.6221 82.154 81.8908 82.3126 82.8423 82.154C82.8423 81.8368 82.6837 81.9954 82.6837 81.6782C82.2079 81.5196 82.2079 82.4713 81.8908 82.154V81.8368C81.5736 81.6782 82.0494 82.4713 81.7322 82.154C81.5736 81.9954 81.7322 81.8368 81.5736 81.8368C81.0979 81.9954 80.6221 81.9954 80.1464 82.6298C79.8292 82.154 79.512 82.7884 79.1949 82.3126C79.0363 82.6298 78.8777 82.4713 79.0363 82.9471C78.0848 82.9471 76.9747 83.4228 76.1818 83.8987C75.2303 84.3745 74.4374 84.8503 73.6444 85.0089C73.1687 86.2778 71.7414 85.4848 70.9485 86.1192C70.9485 86.1192 70.9485 86.1192 70.9485 85.9606C70.7899 86.2778 70.3142 86.595 69.8384 86.595L69.6798 87.0708C68.4112 86.9122 67.3011 87.0708 66.0324 87.2294C64.7637 87.388 63.6536 87.5466 62.385 87.388C59.5305 87.2294 57.1517 86.2778 54.2972 87.5466C54.2972 87.388 54.2972 87.388 54.2972 87.388C53.5043 87.5466 52.7114 87.0708 52.077 87.2294V87.0708C50.174 87.7052 48.271 86.595 46.368 87.2294C44.1479 86.7536 41.7691 86.4364 39.5489 85.9606V85.802C37.6459 85.6433 36.3773 84.0573 34.4743 83.5815C32.8884 82.4712 30.3511 83.2643 28.7652 81.9954C27.9723 80.568 25.7521 82.154 25.1178 80.7266C23.532 78.3475 21.1532 78.6647 18.6159 78.3475C16.8715 76.92 14.3341 77.3958 13.0655 75.334C11.7968 75.4926 11.7968 73.4307 10.6867 73.1135L10.5281 73.4307C10.5281 72.4791 9.25945 74.0651 9.57662 72.7963C9.57662 72.1618 8.62512 73.9065 8.7837 73.1135L8.62511 73.4307C8.30795 73.4307 8.7837 73.1135 8.62511 72.9549C8.46653 72.9549 8.46653 73.4307 8.30795 73.2721C8.7837 72.1619 7.67361 73.2721 8.14936 72.0032C8.30795 72.0032 8.14936 71.3688 8.46653 71.2102C8.46653 71.0516 7.99078 70.893 7.8322 71.5274C7.67361 72.1619 7.35645 72.4791 7.35645 73.1135L7.51503 72.6377C7.51503 73.1135 7.51503 72.7963 7.35645 73.1135C7.67361 73.2721 7.51503 73.9065 7.51503 74.2238C7.83219 73.7479 7.99078 74.2238 7.99078 74.2238V74.5409C7.8322 75.0168 8.7837 73.7479 8.30795 74.5409C8.94228 74.5409 9.57662 75.0168 10.211 75.334C10.5281 75.0168 10.6867 75.6512 10.8453 75.0168C10.6867 75.8098 11.0039 76.127 11.1625 76.2856C11.1625 76.2856 11.0039 76.4442 11.0039 76.2856C10.8453 77.3959 11.7968 75.8098 11.6382 76.92C12.114 76.2856 12.114 77.5544 12.7483 76.7614C12.7483 76.92 12.5897 77.0787 12.5897 77.2373C13.224 77.5545 13.6998 78.1889 14.3341 78.5061C15.127 78.0303 15.2856 79.2991 16.0785 78.6647C16.2371 78.9819 16.7129 79.6163 17.3472 79.4577L17.1886 79.6163C17.6644 79.7749 18.4573 80.0922 18.9331 79.6163C18.7745 80.568 18.9331 80.568 19.0916 80.8852C19.5674 80.568 20.2017 81.0438 20.9946 80.8852C20.8361 81.361 21.4704 80.8852 21.3118 81.5196C23.2148 81.0438 24.9592 82.154 26.2279 83.5815C26.5451 83.2643 27.0208 82.6298 27.4966 82.3126C27.4966 82.3126 27.4966 82.4712 27.338 82.4712C27.6552 82.4712 27.6552 83.1056 27.9723 83.1056C27.9723 83.2642 27.9723 83.2643 27.8137 83.2643C28.1309 83.1056 28.1309 83.8987 28.6067 83.5815V83.7401L28.9238 83.5815C28.7652 83.7401 28.7652 84.0573 28.6067 83.8987C30.9854 85.0089 33.9985 85.0089 36.5358 86.1192L36.3773 86.2778L37.0116 86.1192C37.0116 86.2778 37.0116 86.2778 36.853 86.2778C37.3288 86.9122 38.2803 86.4364 38.9146 86.7536C38.9146 86.9122 38.756 87.0708 38.756 87.2294C39.3904 86.7536 39.2318 88.181 39.8661 87.0708C39.8661 87.0708 39.8661 87.388 39.7075 87.5466C41.1348 87.5466 42.562 87.8638 43.8307 88.3397C45.0994 87.5466 46.2095 88.6568 47.4781 87.8638V88.0224C49.064 87.388 50.6498 88.3397 52.2356 88.3397C52.87 88.4983 53.3457 88.181 53.9801 88.3397V88.6568C55.0901 87.7052 56.2002 89.7671 57.4689 88.6568L57.3103 88.9741C57.4689 88.3396 57.9446 89.1327 57.9446 88.181L58.1032 88.4983C58.8961 87.2294 59.5305 89.1327 60.482 88.3397V88.4983C60.7991 88.3397 60.9577 88.181 61.2749 88.3397V88.4983C62.0678 89.4499 63.0193 88.3397 63.8122 88.3397V88.8155C64.1294 88.3396 64.9223 88.6569 65.5567 88.3397V88.4983L65.8738 88.181V88.6568C66.8253 89.2913 67.4597 88.8154 68.094 88.6568Z" fill="#45C7F0"/>
</svg>
